<?xml version="1.0" standalone="no"?>
<!DOCTYPE svg PUBLIC "-//W3C//DTD SVG 1.1//EN" "http://www.w3.org/Graphics/SVG/1.1/DTD/svg11.dtd" >
<!--
2013-9-30: Created.
-->
<svg>
<metadata>
Created by iconfont
</metadata>
<defs>

<font id="iconfont" horiz-adv-x="1024" >
  <font-face
    font-family="iconfont"
    font-weight="500"
    font-stretch="normal"
    units-per-em="1024"
    ascent="896"
    descent="-128"
  />
    <missing-glyph />
    
    <glyph glyph-name="x" unicode="x" horiz-adv-x="1001"
d="M281 543q-27 -1 -53 -1h-83q-18 0 -36.5 -6t-32.5 -18.5t-23 -32t-9 -45.5v-76h912v41q0 16 -0.5 30t-0.5 18q0 13 -5 29t-17 29.5t-31.5 22.5t-49.5 9h-133v-97h-438v97zM955 310v-52q0 -23 0.5 -52t0.5 -58t-10.5 -47.5t-26 -30t-33 -16t-31.5 -4.5q-14 -1 -29.5 -0.5
t-29.5 0.5h-32l-45 128h-439l-44 -128h-29h-34q-20 0 -45 1q-25 0 -41 9.5t-25.5 23t-13.5 29.5t-4 30v167h911zM163 247q-12 0 -21 -8.5t-9 -21.5t9 -21.5t21 -8.5q13 0 22 8.5t9 21.5t-9 21.5t-22 8.5zM316 123q-8 -26 -14 -48q-5 -19 -10.5 -37t-7.5 -25t-3 -15t1 -14.5
t9.5 -10.5t21.5 -4h37h67h81h80h64h36q23 0 34 12t2 38q-5 13 -9.5 30.5t-9.5 34.5q-5 19 -11 39h-368zM336 498v228q0 11 2.5 23t10 21.5t20.5 15.5t34 6h188q31 0 51.5 -14.5t20.5 -52.5v-227h-327z" />
    

    
    <glyph glyph-name="fenlei3" unicode="&#58882;" d="M177.42675755500795 718.573242444992m-60.93457005500794 0a1.7851924896240234 1.7851924896240234 0 1 1 121.86914088249206 0 1.7851924896240234 1.7851924896240234 0 1 1-121.86914088249206 0ZM177.42675755500795 384m-60.93457005500794 0a1.7851924896240234 1.7851924896240234 0 1 1 121.86914088249206 0 1.7851924896240234 1.7851924896240234 0 1 1-121.86914088249206 0ZM177.42675755500795 49.42675755500795m-60.93457005500794 0a1.7851924896240234 1.7851924896240234 0 1 1 121.86914088249206 0 1.7851924896240234 1.7851924896240234 0 1 1-121.86914088249206 0ZM907.5078124999999 717.966796875c0-18.773437242507935-15.1875-33.98730494499206-33.98730494499206-33.98730494499206L392.95214843749994 683.979491930008c-18.773437242507935 0-33.98730494499206 15.213866930007935-33.98730494499206 33.98730494499206l0 0c0 18.773437242507935 15.213866930007935 33.98730494499206 33.98730494499206 33.98730494499206l480.56835911750807 0C892.3203125 751.98046875 907.5078124999999 736.740234117508 907.5078124999999 717.966796875L907.5078124999999 717.966796875zM907.5078124999999 384c0-18.7470703125-15.1875-33.98730494499206-33.98730494499206-33.98730494499206L392.95214843749994 350.01269505500784c-18.773437242507935 0-33.98730494499206 15.240234632492069-33.98730494499206 33.98730494499206l0 0c0 18.773437242507935 15.213866930007935 33.98730494499206 33.98730494499206 33.98730494499206l480.56835911750807 0C892.3203125 417.987304944992 907.5078124999999 402.77343724250795 907.5078124999999 384L907.5078124999999 384zM907.5078124999999 50.00683619499205c0-18.7470703125-15.1875-33.98730494499206-33.98730494499206-33.98730494499206L392.95214843749994 16.019531250000227c-18.773437242507935 0-33.98730494499206 15.240234632492069-33.98730494499206 33.98730494499206l0 0c0 18.799804944992065 15.213866930007935 33.98730494499206 33.98730494499206 33.98730494499206l480.56835911750807 0C892.3203125 83.99414036750795 907.5078124999999 68.75390650749205 907.5078124999999 50.00683619499205L907.5078124999999 50.00683619499205z"  horiz-adv-x="1024" />

    
    <glyph glyph-name="tuihuo" unicode="&#58920;" d="M512.326435-147.047686c-81.555457 0-161.369248 22.193465-230.81183 64.179718-14.686491 8.879228-19.393699 27.983331-10.514471 42.668799 8.880251 14.685467 27.984355 19.394722 42.669822 10.513448 59.742662-36.119639 128.438231-55.213509 198.657502-55.213509 212.048487 0 384.561539 172.514075 384.561539 384.561539S724.373898 684.221802 512.326435 684.221802c-212.047464 0-384.560516-172.512029-384.560516-384.559493 0-74.845639 21.505803-147.381675 62.193481-209.772654 9.374508-14.374382 5.320169-33.626865-9.054213-43.002396-14.373359-9.370415-33.627888-5.322216-43.00342 9.055237-47.289026 72.512501-72.285327 156.788929-72.285327 243.719814 0 119.320573 46.465265 231.498468 130.837884 315.870064 84.371596 84.371596 196.550515 130.836861 315.870064 130.836861 119.321596 0 231.499491-46.465265 315.871087-130.836861 84.372619-84.371596 130.838907-196.550515 130.838907-315.870064s-46.465265-231.500515-130.838907-315.872111C743.825926-100.582421 631.647007-147.047686 512.326435-147.047686zM550.401612 40.522294c-95.853092 0-161.587212 25.768897-197.194174 77.287247-10.610662-21.594831-24.818245-39.58353-42.621726-53.985542-10.992355-8.712429-20.839631-15.3455-29.550013-19.890003-8.719592-4.546549-15.72617-6.819313-21.026896-6.819313-3.409656 1.13587-7.769964 3.505847-13.07069 7.103792-5.309936 3.604084-7.956206 8.435113-7.956206 14.491039 0 3.790326 1.420349 7.671727 4.26207 11.648294 2.841721 3.978614 8.045233 7.869225 15.626909 11.650341l-0.567935 0c45.463448 25.00551 68.195172 55.124482 68.195172 90.357937L326.498122 350.806129c0 4.91801-1.705851 7.387247-5.115508 7.387247l-61.374836 0c-13.638625 0-20.458961 6.437619-20.458961 19.320021 0 7.958252 1.420349 14.012132 4.26207 18.186198 2.841721 4.16588 8.240685 6.251378 16.196891 6.251378l72.17174 0c7.956206 0 14.393825-0.478907 19.322068-1.420349 4.919033-0.949628 8.710382-3.127224 11.365862-6.535857 2.645247-3.41068 4.448312-8.150634 5.39794-14.207583 0.941442-6.065136 1.421372-14.207583 1.421372-24.437575L369.68676 178.048507c6.054903-29.179576 23.867594-52.185546 53.41863-69.047586 29.550013-16.85283 68.194148-25.289989 115.930359-25.289989l225.607294 0c14.012132 0 21.026896-7.192819 21.026896-21.594831 0-14.393825-7.014764-21.594831-21.026896-21.594831L550.401612 40.521271zM397.533992 467.872359c0-5.683443-2.371-10.991332-7.103792-15.911388-4.742001-4.928243-9.945513-7.387247-15.628956-7.387247-6.065136 0-14.402011 5.301749-25.004487 15.911388-4.927219 4.920056-10.42442 10.132778-16.480346 15.626909-6.064113 5.487991-12.883425 11.082406-20.457938 16.765849-7.583722 6.437619-14.119579 11.737322-19.606547 15.911388-5.497201 4.16588-10.327206 7.387247-14.491039 9.660011-5.309936 3.028986-9.28855 6.437619-11.933797 10.229992-2.65548 3.78214-3.977591 7.387247-3.977591 10.79588 1.509377 4.920056 3.594875 9.946536 6.250354 15.058974 2.64627 5.115508 7.760754 7.673773 15.344476 7.673773 6.436596 0 14.580067-3.792373 24.436552-11.366885 5.300726-3.792373 11.738345-8.718569 19.321044-14.775518 7.574512-6.065136 16.284895-13.07069 26.140357-21.026896l-0.567935 0c20.831444-16.676821 33.146934-27.091008 36.939307-31.256888C395.260206 478.475857 397.533992 473.174108 397.533992 467.872359zM721.455429 243.400934c-6.819313-5.683443-14.491039-11.561313-23.01518-17.618263-8.524141-6.065136-18.09717-12.314467-28.698622-18.752086 3.02694-3.038196 5.966898-5.877871 8.807596-8.524141 2.842745-2.656503 5.585205-5.115508 8.241708-7.389294 17.047258-15.538905 30.491455-27.757181 40.346917-36.653805 9.848299-8.905834 15.715937-14.304797 17.618263-16.195867 3.408633-3.408633 5.966898-6.916527 7.671727-10.512425 1.704828-3.596921 2.556219-6.722098 2.556219-9.378601 0-6.053879-2.654456-11.364839-7.956206-15.911388-4.928243-4.16588-9.94449-6.251378-15.058974-6.251378s-10.140964 2.469238-15.058974 7.387247l0.567935 0c-10.993378 10.229992-21.878287 20.653389-32.677237 31.256888-10.79588 10.601452-21.692045 21.026896-32.67519 31.254841-20.458961 18.940374-43.759643 40.348963-69.898976 64.216557-26.14138 23.867594-54.555523 49.441039-85.24243 76.719312l-32.392758 0 0-146.618289c0-4.928243 0.373507-7.387247 1.136893-7.387247 1.509377 0 6.251378 1.224898 14.207583 3.695159 7.956206 2.459005 16.666588 5.202489 26.140357 8.239662 10.984169 4.163833 21.310352 8.045233 30.970362 11.648294 9.662057 3.596921 17.138332 6.90834 22.449291 9.946536 12.874215 6.437619 22.730701 9.562796 29.550013 9.375531 6.819313-0.195451 11.55108-2.75167 14.207583-7.671727l-0.567935 0c3.02694-4.928243 4.544503-9.092076 4.544503-12.502755 0-2.272763-0.381693-4.358261-1.13587-6.251378-0.763386-1.899256-2.556219-4.074805-5.398964-6.53381-2.840698-2.469238-6.819313-5.309936-11.932774-8.526187-5.115508-3.222391-12.218276-6.916527-21.310352-11.08036-8.339946-3.792373-17.618263-7.485485-27.846208-11.082406-10.229992-3.594875-21.409612-7.476275-33.529651-11.648294-25.38618-8.328689-42.816155-12.502755-52.28276-12.502755-11.365862 0-19.888979 4.742001-25.572422 14.207583-4.173043 7.201006-6.251378 18.370393-6.251378 33.529651L421.969521 501.969944c0 18.558681 3.215228 31.157627 9.661034 37.790698 6.437619 6.624884 18.371416 9.946536 35.801391 9.946536l226.747257 0c17.420765 0 29.550013-3.507894 36.370349-10.514471 6.819313-7.014764 10.227945-19.420305 10.227945-37.22174l0-145.480372c0-18.186198-3.505847-30.972409-10.512425-38.360679-7.014764-7.387247-19.038612-11.08036-36.08587-11.08036L558.925752 307.049556c14.777565-13.266142 28.600385-25.484418 41.484833-36.655851 12.876262-11.177574 25.759687-22.641673 38.644135-34.378995 12.119015 7.574512 24.15105 16.09763 36.08587 25.571399 11.93482 9.464559 22.819728 19.127639 32.67519 28.982078 6.819313 6.819313 12.876262 10.700713 18.186198 11.650341 5.301749 0.941442 9.749038 0.284479 13.355169-1.988284 3.594875-2.27481 6.340405-5.309936 8.239662-9.094122 1.89107-3.790326 2.840698-6.633071 2.840698-8.524141C750.437507 272.756519 740.777497 259.685829 721.455429 243.400934zM698.723705 449.120272 698.723705 497.422372c0 6.437619-2.654456 9.662057-7.956206 9.662057L471.41056 507.084429c-3.036149 0-4.927219-0.763386-5.682419-2.27481-0.76441-1.517563-1.136893-3.976568-1.136893-7.387247l0-48.302099L698.723705 449.120272zM698.723705 407.634416 464.590224 407.634416l0-57.96518 226.177276 0c5.301749 0 7.956206 3.594875 7.956206 10.79588L698.723705 407.634416z"  horiz-adv-x="1024" />

    
    <glyph glyph-name="shanchu" unicode="&#58931;" d="M908.8-115.19999999999993L115.2-115.19999999999993 115.2 723.2c0 12.8 12.8 25.6 25.6 25.6 12.8 0 25.6-12.8 25.6-25.6l0-793.6 697.6 0L864 723.2c0 12.8 12.8 25.6 25.6 25.6 12.8 0 25.6-12.8 25.6-25.6L915.2-115.19999999999993zM998.4 723.2L25.6 723.2C12.8 723.2 0 729.6 0 742.4 0 755.2 12.8 768 25.6 768l979.2 0C1011.2 768 1024 755.2 1024 742.4 1024 729.6 1011.2 723.2 998.4 723.2zM672 742.4c-12.8 0-25.6 12.8-25.6 25.6L646.4 838.4 371.2 838.4 371.2 768c0-12.8-12.8-25.6-25.6-25.6S326.4 755.2 326.4 768L326.4 883.2l371.2 0L697.6 768C697.6 755.2 684.8 742.4 672 742.4zM326.4 102.39999999999998c-12.8 0-25.6 12.8-25.6 25.6L300.8 524.8c0 12.8 12.8 25.6 25.6 25.6 12.8 0 25.6-12.8 25.6-25.6L352 128C345.6 115.20000000000005 339.2 102.39999999999998 326.4 102.39999999999998zM512 102.39999999999998c-12.8 0-25.6 12.8-25.6 25.6L486.4 524.8c0 12.8 12.8 25.6 25.6 25.6 12.8 0 25.6-12.8 25.6-25.6L537.6 128C537.6 115.20000000000005 524.8 102.39999999999998 512 102.39999999999998zM697.6 102.39999999999998c-12.8 0-25.6 12.8-25.6 25.6L672 524.8c0 12.8 12.8 25.6 25.6 25.6 12.8 0 25.6-12.8 25.6-25.6L723.2 128C723.2 115.20000000000005 710.4 102.39999999999998 697.6 102.39999999999998z"  horiz-adv-x="1024" />

    
    <glyph glyph-name="order" unicode="&#59099;" d="M819.2361201777778-86.29753434074064L222.59909831111116-86.29753434074064c-65.91485759999999 0-119.34024639999997 53.6180288-119.34024639999997 119.75763306666666L103.2588519111111 632.3124752592591c0 66.17171093333333 53.4253888 119.7255264 119.34024639999997 119.7255264l89.48110506666667 0L312.0802033777778 811.9810309925927l80.36282986666666 0c25.813709866666667 35.63833066666667 73.39569706666666 59.878816 128.45852266666668 59.878816s102.6448128-24.2404864 128.49062933333332-59.878816l80.36282986666666 0 0-59.91092266666667 89.48110506666667 0c65.91485759999999 0 119.34024639999997-53.58592213333332 119.34024639999997-119.7255264l0-598.8523765333333C938.5763665777779-32.67950660740735 885.1509777777777-86.29753434074064 819.2361201777778-86.29753434074064L819.2361201777778-86.29753434074064zM670.100944711111 752.0701072592592l-66.26803093333334 0c0 33.13401493333333-37.11523413333333 59.91092266666667-82.8992512 59.91092266666667s-82.83503786666667-26.77690773333333-82.83503786666667-59.91092266666667l-66.26803093333334 0 0-119.7255264 298.30245759999997 0L670.1330513777776 752.0701072592592 670.100944711111 752.0701072592592zM878.8901905777777 632.3124752592591c0 33.0698016-26.68058773333333 59.878816-59.62196373333333 59.878816l-89.48110506666667 0 0-119.75763306666666L312.0802033777778 572.4336581925926l0 119.75763306666666L222.59909831111116 692.1912912592592c-32.97348266666667 0-59.6540704-26.8090144-59.6540704-59.878816l0-598.8523765333333c0-33.10190826666666 26.68058773333333-59.878816 59.6540704-59.878816l596.6370218666667 0c32.941376 0 59.62196373333333 26.77690773333333 59.62196373333333 59.878816L878.8580839111111 632.3124752592591 878.8901905777777 632.3124752592591zM729.7550151111111 93.37102139259264L312.0802033777778 93.37102139259264c-16.502794666666667 0-29.794928 13.420559999999998-29.794928 29.987568s13.2921344 29.92335466666667 29.794928 29.92335466666667l417.67481066666664 0c16.470688 0 29.827034666666666-13.356347733333333 29.827034666666666-29.92335466666667S746.2257020444445 93.37102139259264 729.7550151111111 93.37102139259264L729.7550151111111 93.37102139259264zM729.7550151111111 243.1162213925927L312.0802033777778 243.1162213925927c-16.502794666666667 0-29.794928 13.356347733333333-29.794928 29.92335466666667s13.2921344 29.987568 29.794928 29.987568l417.67481066666664 0c16.470688 0 29.827034666666666-13.420559999999998 29.827034666666666-29.987568S746.2257020444445 243.1162213925927 729.7550151111111 243.1162213925927L729.7550151111111 243.1162213925927zM729.7550151111111 392.797209125926L312.0802033777778 392.797209125926c-16.502794666666667 0-29.794928 13.388453333333333-29.794928 29.92335466666667 0 16.599114666666665 13.2921344 29.955461333333336 29.794928 29.955461333333336l417.67481066666664 0c16.470688 0 29.827034666666666-13.356347733333333 29.827034666666666-29.955461333333336C759.5820497777777 406.1856635259259 746.2257020444445 392.797209125926 729.7550151111111 392.797209125926L729.7550151111111 392.797209125926zM729.7550151111111 392.797209125926"  horiz-adv-x="1024" />

    
    <glyph glyph-name="daodianziti" unicode="&#59019;" d="M512.00058254 573.7707793100001c-5.03324786 0-9.13273059-3.68033678-9.13273059-8.25368804l0-66.00505116c0-4.58383019 4.09948274-8.25601593 9.13273059-8.25601593 5.06235449 0 9.13040157 3.68033678 9.13040157 8.25601593l0 66.00505116C521.13098411 570.10208541 517.06177309 573.7707793100001 512.00058254 573.7707793100001zM370.10095787 572.90454357c-4.49767197 1.99443797-9.94773675 0.35161657-12.22393401-3.70944455l-36.50414251-66.00505116c-2.28784014-4.05756814-0.42846094-9.03260046 4.06106112-11.05614621 1.31099648-0.61241913 2.70465707-0.86739968 4.0564042-0.86739968 3.34851299 0 6.56080213 1.67425593 8.1954725 4.57567915l36.50297856 66.00272213C376.3974656 565.90596665 374.61609472 570.8705200300001 370.10095787 572.90454357zM443.10458709 572.90454357c-4.45692131 1.99443797-9.94773675 0.35161657-12.2262619-3.70944455l-36.50181461-66.00505116c-2.28784014-4.05756814-0.42846094-9.03260046 4.05640419-11.05614621 1.31681735-0.61241913 2.70815005-0.86739968 4.06106112-0.86739968 3.34967694 0 6.56080213 1.67425593 8.1954725 4.57567915l36.50064953 66.00272213C449.40109483 565.90596665 447.61972281 570.8705200300001 443.10458709 572.90454357zM420.74546403 369.81888683c-31.43945899 7.38861625-54.75097486 32.97749333-54.75097486 63.68926834 0-30.71177501-23.31384377-56.29948701-54.75330389-63.68926834l0-216.84063915 109.5054427 0L420.74662912 369.81888683zM402.49513984 235.47320889000002c0-9.11875869-8.12677917-16.49689714-18.25032533-16.49689714-10.05601678 0-18.25148928 7.3874523-18.25148928 16.49689714 0 6.06364899 3.77580885 11.09573177 9.12923762 14.00530489l0 38.01889109c-5.35342877 2.91539513-9.12923762 7.93350599-9.12923762 13.99016903 0 9.12341561 8.1954725 16.49806109 18.25148928 16.49806109 10.12238109 0 18.25032533-7.3874523 18.25032533-16.49806109 0-6.05549909-3.74786617-11.08758187-9.13156665-13.99715499l0-38.01889109C398.74727367 246.56079075000002 402.49513984 241.53685788999996 402.49513984 235.47320889000002zM712.75881358 369.81888683c-31.43829504 7.38861625-54.74981091 32.97749333-54.74981091 63.68926834 0-36.45174898-32.64799744-66.00621511-73.00479318-66.00621512-40.28693731 0-73.00246414 29.55446613-73.00246414 66.00621512 0-36.45174898-32.64916139-66.00621511-73.00479317-66.00621512l0-214.52252728 273.76302421 0L712.75997753 369.81888683zM578.59010901 337.50038414000005l12.89689657-11.66740025-51.62018588-46.67542414-12.89806052 11.66856534L578.59010901 337.50038414000005zM526.96875918 244.15652180999996l103.22756381 93.34502742 12.89806051-11.66740025-103.2275638-93.34735531L526.96875918 244.15652180999996zM591.48700558 232.48679139l-12.89689657 11.66856534 51.61669291 46.67193116 12.89573149-11.66856533L591.48700558 232.48679139zM512.00058254 879.05476381c-273.41257159 0-495.05592775-221.64335616-495.05592775-495.05476381 0-273.41024256 221.64335616-495.05359872 495.05592775-495.05359872 273.40907861 0 495.05243477 221.64335616 495.05243477 495.05359872C1007.05301731 657.41140765 785.40966115 879.05476381 512.00058254 879.05476381zM311.24002247 648.02951737l401.51762716 0c10.12238109 0 18.25148928-7.37813731 18.25148928-16.49689714 0-9.12225166-8.12794425-16.50038898-18.25148928-16.50038898L311.24002247 615.03223125c-10.05368775-0.0081499-18.24916025 7.37813731-18.24916025 16.50038898C292.99086109 640.65021611 301.18633472 648.02951737 311.24002247 648.02951737zM804.01276701 433.50699008c0-30.71177501-23.31151587-56.29948701-54.74981092-63.68926834l0-216.84995299 36.49948558 0c10.12471011 0 18.25148928-7.38628835 18.25148928-16.49573206 0-9.11177273-8.12561522-16.50271801-18.25148928-16.502718L238.23639325 119.96931755000003c-10.0548517 0-18.25032533 7.3793024-18.25032534 16.502718 0 9.11875869 8.1954725 16.50504704 18.25032534 16.50504704l36.5041425 0L274.74053689 369.81888683c-31.44062407 7.38861625-54.75330389 32.97749333-54.7533039 63.68926834l0 16.49689713 584.02553402 0L804.01276701 433.50699008zM219.98606905 466.51359005l73.00479317 132.01126627L731.00913891 598.52485632l73.00246415-132.01126627L219.98606905 466.51359005zM589.63694023 569.47802339c-2.43337671 4.03078941-8.06041486 5.44191488-12.41022122 3.25187584-4.40918585-2.16093127-6.05549909-7.18253625-3.6291072-11.18538296l39.92833478-66.00155819c1.63350642-2.73725781 4.76895232-4.28576995 7.98007866-4.28576995 1.4972837 0 2.99689529 0.32250994 4.41849969 1.03389411 4.42082873 2.16093127 5.98564067 7.19417913 3.64075008 11.18188999L589.63694023 569.47802339zM666.20214727 569.19510016c-2.28784014 4.09831879-7.83454094 5.73182407-12.26235562 3.70944455-4.48952206-2.03402354-6.33725838-6.99857806-4.06106112-11.0584741l36.5041425-66.00272213c1.56481309-2.90025927 4.77710222-4.57567915 8.12561522-4.57567915 1.43091826 0 2.7733504 0.25381661 4.06804708 0.86739968 4.56520135 2.02238066 6.33725838 6.99857806 4.1285905 11.05614621L666.20214727 569.19510016z"  horiz-adv-x="1024" />

    
    <glyph glyph-name="daodianzhifu" unicode="&#58941;" d="M1252.864 457.9584c-31.616 30.848-68.4288 55.1168-110.4384 72.8576-42.0096 17.7408-86.5536 26.5984-133.5808 26.5984-47.0272 0-90.9824-8.8576-131.84-26.5984-40.8576-17.7408-76.3392-42.0352-106.3936-72.8576-30.0544-30.848-53.7856-66.8928-71.1168-108.1344-17.3568-41.2416-26.0352-84.992-26.0352-131.2768 0-46.2592 8.6784-90.1888 26.0352-131.84 17.3568-41.6512 41.0624-78.0544 71.1168-109.2864 30.08-31.232 65.536-55.8848 106.3936-74.0096 40.8576-18.1248 84.8128-27.1872 131.84-27.1872 47.0272 0 91.5456 9.0624 133.5808 27.1872 42.0096 18.1248 78.8224 42.8032 110.4384 74.0096 31.616 31.232 56.6784 67.6608 75.1616 109.2864 18.5088 41.6256 27.7504 85.5808 27.7504 131.84 0 46.2592-9.2416 90.0096-27.7504 131.2768C1309.5168 391.0912 1284.48 427.136 1252.864 457.9584zM1204.7872 255.5648l0-50.1248-157.7728 0 0-76.4928 157.7728 0 0-51.8656-157.7728 0 0-100.4288-50.2016 0 0 100.4288-153.9328 0 0 51.8656 153.9328 0 0 76.4928-153.9328 0 0 50.1248 90.9312 0-99.456 97.152 43.9552 58.9824 109.8752-106.3936-37.0176-49.7408 124.9024 0-38.1696 40.4736 119.1168 112.1792 52.0448-52.0448-104.0896-100.608L1204.7872 255.5648zM1344.7936 785.8432c-7.3216 17.3568-17.536 32.5632-30.6432 45.6704-13.1072 13.1072-28.5184 23.5264-46.2592 31.232-17.7408 7.7056-36.6336 7.9104-56.6784 7.9104L165.8112 870.656c-20.0448 0-38.9376-0.2048-56.6784-7.9104C91.392 855.04 75.9808 844.6208 62.8736 831.5136 49.7664 818.4064 43.008 803.1744 35.3024 785.8432 27.5968 768.4864 23.7312 749.7984 23.7312 729.7536l0-695.0656c0-20.0448 3.8656-39.5264 11.5712-58.3936 7.7056-18.8928 14.464-35.84 27.5712-50.8928 13.1072-15.0272 28.5184-26.9824 46.2592-35.84 17.7408-8.8576 36.6336-16.9472 56.6784-16.9472l500.3264 0 0 154.7776L253.696 27.392000000000053c-20.0448 0-37.5808 14.4384-52.6336 28.6976-15.0272 14.2592-22.5536 31.4112-22.5536 51.456L178.5088 542.3872c0 20.0448 7.5264 37.0176 22.5536 50.8928 15.0272 13.8752 32.5632 20.8128 52.6336 20.8128l885.8112 0c20.0448 0 34.688-4.2496 43.9552-12.7232 9.2416-8.4736 13.8752-19.072 13.8752-39.1424l158.4384 0L1355.776 729.7536C1355.776 749.7984 1352.1152 768.4864 1344.7936 785.8432z"  horiz-adv-x="1383" />

    
    <glyph glyph-name="jiantou" unicode="&#58961;" d="M512 174.016 104.704 581.312 14.208 490.816 512-6.976 1009.792 490.816 919.296 581.312Z"  horiz-adv-x="1024" />

    
    <glyph glyph-name="zhongping" unicode="&#58917;" d="M752.983 608.246c0 0 2.527 171.523-58.543 198.27-61.066 26.742-196.248-89.198-196.248-89.198S341.357 875.476 322.986 833.523c-45.417-103.705-82.345-183.932-108.455-268.121-28.085-166.071 28.372-291.104 153.121-366.975-2.337-5.467-4.216-12.466-5.503-21.264-3.05-72.038 56.684-223.789 80.599-264.727 30.853 0 79.262-3.043 79.262-3.043s-77.265 146.821-81.932 253.616c143.701-54.016 282.578-2.936 393.715 137.5 50.488 63.795 87.083 149.607 129.466 246.39C978.522 581.753 752.983 608.246 752.983 608.246zM769.694 332.279c-80.983-90.594-204.067-149.559-326.634-92.357-127.454 55.812-184.134 170.456-165.613 301.924 7.28 51.672 44.933 116.342 78.673 193.384 27.389 18.813 140.754-116.434 140.754-116.434s113.636 116.696 158.33 97.121c44.696-19.572 31.387-178.979 31.387-178.979s180.44 5.908 185.48-33.409C839.918 430.103 813.321 381.079 769.694 332.279zM541.66-54.871c29.964-10.708 46.861-6.306 65.574-2.712 52.354 88.518 133.029 107.301 246.993 111.534 5.582 19.344 17.53 33.272 11.136 52.527C794.392 108.64 613.709 110.557 541.66-54.871zM76.307 106.299c-15.739-17.984-3.229-49.006 0-62.594 121.055 28.058 210.33-44.24 241.733-102.171 15.743 0.18 55.497 5.122 69.708 10.158C385.587 3.781 268.792 125.633 76.307 106.299z"  horiz-adv-x="1024" />

    
    <glyph glyph-name="up" unicode="&#59082;" d="M928 79.856l-416 415.84L96 79.856 0.16 175.984 512 688.144l511.84-512.191L928 79.856z"  horiz-adv-x="1024" />

    
    <glyph glyph-name="youhuiquan" unicode="&#58954;" d="M934.925 483.514c24.201 16.066 24.878 28.351 24.878 49.756 0 29.042 0 149.263 0 149.263 0 41.218-33.416 74.634-74.634 74.634l-746.339 0c-41.218 0-74.634-33.416-74.634-74.634 0 0 0-137.401 0-149.263 0-22.296 1.552-37.168 24.878-49.756 33.988-15.827 74.634-47.806 74.634-99.517 0-67.106-42.183-88.939-73.166-99.403-21.808-13.648-26.346-36.123-26.346-49.861 0-11.847 0-149.268 0-149.268 0-41.223 33.416-74.634 74.634-74.634h746.339c41.218 0 74.634 33.411 74.634 74.634 0 0 0 99.507 0 149.268 0 27.172-6.239 35.784-24.878 49.756-54.339 28.013-74.634 52.95-74.634 99.512 0.001 46.561 19.008 69.732 74.635 99.511zM910.048 243.869v-133.53c0-27.475-22.275-49.756-49.756-49.756l-696.584 0c-27.48 0-49.756 22.28-49.756 49.756l-0 133.53c57.846 20.564 99.512 75.231 99.512 140.127 0 64.902-41.666 119.568-99.512 140.127v133.531c0 27.48 22.275 49.756 49.756 49.756h696.584c27.48 0 49.756-22.275 49.756-49.756v-133.53c-57.841-20.559-99.512-75.226-99.512-140.127 0-64.897 41.671-119.564 99.512-140.128zM648.828 433.758h-93.919l101.95 109.538c4.408 4.817 4.408 12.633 0 17.455l-15.956 17.455c-4.408 4.822-11.548 4.822-15.956 0l-113.065-121.475-113.111 121.515c-4.374 4.782-11.464 4.782-15.833 0l-15.833-17.32c-4.374-4.782-4.374-12.533 0-17.315l102.254-109.851h-94.188c-6.872 0-12.439-5.573-12.439-12.439v-24.883c0-6.872 5.568-12.439 12.439-12.439h111.951v-49.756h-111.951c-6.872 0-12.439-5.568-12.439-12.439v-24.878c0-6.866 5.568-12.439 12.439-12.439h111.951v-87.073c0-6.866 5.568-12.439 12.439-12.439h24.878c6.872 0 12.439 5.573 12.439 12.439v87.073h111.951c6.872 0 12.439 5.573 12.439 12.439v24.878c0 6.872-5.568 12.439-12.439 12.439h-111.951v49.756h111.951c6.872 0 12.439 5.568 12.439 12.439v24.883c0 6.867-5.568 12.439-12.439 12.439z"  horiz-adv-x="1024" />

    
    <glyph glyph-name="yes" unicode="&#58898;" d="M512 896c-282.769 0-512-229.231-512-512 0-282.771 229.231-512 512-512 282.771 0 512 229.229 512 512 0 282.769-229.231 512-512 512zM805.671 516.807l-331.138-331.139c0 0-0.004-0.004-0.009-0.010-15.266-15.27-38.544-17.654-56.315-7.158-3.291 1.945-6.394 4.334-9.22 7.158-0.002 0.004-0.006 0.006-0.006 0.006l-190.652 190.652c-18.096 18.097-18.096 47.44 0 65.54 18.096 18.096 47.44 18.096 65.536 0l157.892-157.892 298.377 298.377c18.099 18.096 47.442 18.096 65.539 0 18.091-18.096 18.091-47.438-0.004-65.534z"  horiz-adv-x="1024" />

    
    <glyph glyph-name="kaidianguize" unicode="&#58932;" d="M420.368035 844.8 903.635927 844.8C910.963789 842.09243 919.851796 840.493221 924.575529 833.548539 932.422738 822.749924 929.435438 808.651555 929.991726 796.219952 929.889336 577.491512 929.889336 358.759905 929.991726 140.066299 930.201789 131.452744 928.53291 122.113997 921.833124 116.10562 914.542213 108.815759 903.636982 109.40478 894.157844 108.672205 867.593042 107.702124 252.47648 112.111293 209.803475 106.312975 172.19727 100.930555 145.804524 58.082324 158.269905 22.071107 166.154056-8.068961 196.95175-27.167626 227.301876-26.197545 428.498135-26.367493 678.380815-26.231322 879.573908-26.265103 879.783972-4.424028 879.017615 17.419151 879.747026 39.223276 879.505295 52.488791 891.170545 64.819057 904.575396 64.506604 918.082637 64.992174 929.957949 52.560568 929.784832 39.189499 930.134231 9.15499 930.097285-20.91646 929.784832-50.952023 930.236621-65.987753 915.89547-78.21246 901.171139-76.650194L268.938298-76.650194C245.879084-76.026348 222.51164-78.562913 199.699433-73.978516 164.452456-67.691464 132.955966-43.939784 117.018771-11.888056 108.127594 4.083968 105.977372 22.487004 102.4 40.089912L102.400002 725.938171C105.560418 742.189928 107.713807 758.9262 114.726046 774.101263 130.144949 808.200821 162.648465 834.521786 199.699434 840.979845 208.102932 842.403826 214.386818 843.64097 224.223797 844.8 224.223797 844.8 224.291355 828.584132 224.223797 820.38964 224.393746 640.965839 224.271299 262.435835 224.271299 262.435835 255.104883 297.090627 324.35747 368.066985 324.35747 368.066985L420.507373 261.600865"  horiz-adv-x="1024" />

    
    <glyph glyph-name="shangxia" unicode="&#58911;" d="M112.528645 459.794175l802.441232 0c6.997042 0 13.396775 4.309154 16.127328 10.836882 2.645223 6.570393 1.194617 14.036748-3.797175 19.02854l-401.177951 401.220616c-6.826382 6.826382-17.876588 6.826382-24.702971 0L100.155827 489.659598C95.164035 484.667806 93.670764 477.158785 96.401317 470.588392 99.089205 464.103329 105.446273 459.794175 112.528645 459.794175zM914.969876 314.605558 112.528645 314.605558c-7.039707 0-13.396775-4.309154-16.127328-10.794217-2.730553-6.485063-1.237282-13.994084 3.75451-18.985876l401.263281-401.135286c6.826382-6.826382 17.876588-6.826382 24.702971 0l401.177951 401.135286c4.991792 4.991792 6.399733 12.500812 3.797175 18.985876C928.409316 310.296404 921.966918 314.605558 914.969876 314.605558z"  horiz-adv-x="1024" />

    
    <glyph glyph-name="fav" unicode="&#58884;" d="M726 8q-9 0-17 5l-197 102-197-102q-9-5-19.5-4.5t-19.5 6.5q-19 14-15 36l38 218-160 154q-16 16-9 38 2 6 6.5 11.5t10.5 9 13 4.5l220 31 99 198q10 21 33 21 11 0 20-5.5t13-15.5l99-198 220-31q23-4 30-25 1-4 1.5-8.5t0-8.5-2-7.5-3.5-7-5-6.5l-160-154 38-218q2-10-2-19.5t-13-16.5q-10-7-22-7v0zM512 154q6 0 11.5-1t10.5-4l189-98-36 208q-4 24 14 41l153 148-212 30q-24 4-35 26l-95 190-95-190q-3-7-8.5-12.5t-12.5-9-14-4.5l-212-30 153-148q18-17 14-41l-36-208 189 98q10 5 22 5v0z"  horiz-adv-x="1024" />

    
    <glyph glyph-name="8" unicode="&#59140;" d="M1006.662 508.433c0 41.177-33.23 74.407-74.407 74.407-40.816 0-74.407-33.592-74.407-74.407 0-6.863 1.084-13.364 2.89-19.505-10.114-3.251-18.421-7.946-21.672-10.114l-135.089-79.825-117.751 171.208c-5.057 8.669-14.087 19.866-26.729 29.98 14.448 14.809 23.117 35.036 23.117 57.069 0 45.15-36.842 81.992-81.992 81.992s-81.631-37.204-81.631-82.353c0-22.033 8.669-42.26 23.117-57.069-12.281-9.752-21.672-20.95-26.729-29.98l-117.751-171.208-135.089 79.825c-0.722 0.361-1.445 1.084-2.528 1.445 3.612 8.669 5.779 18.421 5.779 28.174 0 41.177-33.23 74.407-74.407 74.407s-74.046-33.23-74.046-74.046c0-33.23 22.033-61.043 52.013-70.795-0.361-5.057-0.722-10.114-0.722-15.532v-167.958c0-15.17 12.281-27.812 27.812-27.812s27.812 12.281 27.812 27.812v168.319c0 6.502 0.361 10.836 1.084 13.364 2.528-0.722 5.418-2.167 7.585-3.612 0.361-0.361 1.084-0.722 1.445-0.722l157.844-93.189c12.642-7.224 28.535-3.973 36.842 8.308l132.921 193.603c0.361 0.722 1.084 1.445 1.445 2.167 0 0.361 14.087 23.117 37.204 24.2 0 0 0.361 0 0.361 0 0.361 0 0.722 0 1.084 0 23.478-1.084 37.204-24.2 37.204-24.2 0.361-0.722 0.722-1.445 1.445-2.167l132.921-193.603c8.308-11.92 24.2-15.532 36.842-8.308l157.844 93.189c0.361 0.361 0.722 0.722 1.084 0.722 2.167 1.445 5.057 2.89 7.585 3.612 0.722-2.528 1.084-6.863 1.084-13.726v-229.723h-781.635c-15.17 0-27.812-12.281-27.812-27.812v-110.166c0-15.17 12.281-27.812 27.812-27.812h809.086c15.17 0 27.812 12.281 27.812 27.812s-12.281 27.812-27.812 27.812l-781.274-0v54.902h781.274c15.17 0 27.812 12.281 27.812 27.812v257.174c0 4.334 0 8.308-0.361 12.281 40.454-0.361 73.685 32.869 73.685 74.046zM91.745 527.577c10.475 0 19.144-8.669 19.144-19.144s-8.669-19.144-19.144-19.144-19.144 8.669-19.144 19.144 8.669 19.144 19.144 19.144zM500.983 683.615c14.809 0 26.729-11.92 26.729-26.729s-11.92-26.729-26.729-26.729-26.729 11.92-26.729 26.729 12.281 26.729 26.729 26.729zM932.255 488.928c-10.475 0-19.144 8.669-19.144 19.144s8.669 19.144 19.144 19.144c10.475 0 19.144-8.669 19.144-19.144s-8.669-19.144-19.144-19.144z"  horiz-adv-x="1024" />

    
    <glyph glyph-name="paixingbang" unicode="&#58893;" d="M271.504-20.064c0-56.56-45.856-102.368-102.416-102.368l0 0c-56.544 0-102.368 45.808-102.368 102.368L66.72 496.432c0 56.544 45.84 102.384 102.368 102.384l0 0c56.56 0 102.416-45.84 102.416-102.384L271.504-20.064zM977.088-20.56c0-56.56-45.856-102.4-102.4-102.4l0 0c-56.56 0-102.384 45.84-102.384 102.4L772.304 293.312c0 56.528 45.824 102.4 102.384 102.4l0 0c56.544 0 102.4-45.872 102.4-102.4L977.088-20.56zM624.304-20.56c0-56.56-45.872-102.4-102.416-102.4l0 0c-56.544 0-102.384 45.84-102.384 102.4L419.504 788.608c0 56.544 45.84 102.384 102.384 102.384l0 0c56.544 0 102.416-45.84 102.416-102.384L624.304-20.56z"  horiz-adv-x="1024" />

    
    <glyph glyph-name="dianhua1" unicode="&#59119;" d="M871.04 165.76c-60.8 37.12-123.52 70.4-123.52 70.4s-46.72 32-94.08 0c-4.48-4.48-32.64-26.88-70.4-23.68C515.2 218.24 459.52 268.8 323.84 448c-16 36.48 3.2 62.08 23.68 70.4 20.48 8.96 55.68 40.32 23.68 94.08-30.72 50.56-94.08 141.44-94.08 141.44s-37.12 44.16-94.08-23.68c-71.04-84.48-80-144 19.84-290.56 103.04-151.04 286.72-371.2 521.6-439.04 90.88-7.68 145.92 52.48 163.2 80.64 5.12 8.32 9.6 22.4 8.96 33.92C895.36 131.2 890.24 152.96 871.04 165.76z"  horiz-adv-x="1024" />

    
    <glyph glyph-name="xuanzhong" unicode="&#58905;" d="M0.06502 895.924143l0-1023.924143 1023.94401 0L1024.009031 895.924143 0.06502 895.924143zM429.745506 153.612643 204.861408 384.702582l58.787526 60.577395 166.098377-170.512544 330.594723 339.628954 58.870608-60.577395L429.745506 153.612643z"  horiz-adv-x="1025" />

    
    <glyph glyph-name="guanbi" unicode="&#59153;" d="M800.940738 722.966085 512 434.025347 223.059262 722.966085 173.033915 672.940738 461.974653 384 173.033915 95.059262 223.059262 45.033915 512 333.974653 800.940738 45.033915 850.966085 95.059262 562.025347 384 850.966085 672.940738Z"  horiz-adv-x="1024" />

    
    <glyph glyph-name="pifaguize" unicode="&#58927;" d="M896 42.666667l0 298.666667c0 23.466667-19.2 42.666667-42.666667 42.666667l-298.666667 0L554.666667 682.666667c0 23.466667-19.2 42.666667-42.666667 42.666667L213.333333 725.333333C189.866667 725.333333 170.666667 706.133333 170.666667 682.666667l0-640L128 42.666667l0-42.666667 810.666667 0 0 42.666667L896 42.666667zM512 42.666667 213.333333 42.666667l0 298.666667 298.666667 0L512 42.666667zM512 384 213.333333 384 213.333333 682.666667l298.666667 0L512 384zM853.333333 42.666667l-298.666667 0 0 298.666667 298.666667 0L853.333333 42.666667zM256 640l213.333333 0 0-85.333333-213.333333 0 0 85.333333ZM256 298.666667l213.333333 0 0-85.333333-213.333333 0 0 85.333333ZM597.333333 298.666667l213.333333 0 0-85.333333-213.333333 0 0 85.333333Z"  horiz-adv-x="1024" />

    
    <glyph glyph-name="ren1" unicode="&#59369;" d="M648.513681875 276.5229234375c-6.0609646875 1.9685184375000002-44.613035625 18.867845625-20.512115625 90.12111375l-0.37221468750000003 0c62.724939375000005 62.9110471875 110.7051778125 164.13529593750002 110.7051778125 263.7862640625 0 153.230739375-104.6739525 233.56969875-226.3019128125 233.56969875-121.7056659375 0-225.798271875-80.30346374999999-225.798271875-233.56969875 0-100.0769053125 47.6742159375-201.697351875 110.79535406250001-264.4577859375 24.598805625-62.851569375-19.389714375-86.1725653125-28.602035625-89.37668343749999C241.05723124999997 231.6336046875001 91.58317718749998 149.90843343749998 91.58317718749998 69.20301562500003c0-21.790885312500002 0-8.60027625 0-30.240548437500003 0-109.9674628125 218.99287687499998-134.9624671875 421.64379-134.9624671875 202.94542312500002 0 419.1888975 24.9950034375 419.1888975 134.9624671875 0 21.6402721875 0 8.4496640625 0 30.240548437500003C932.41586375 152.34509812500005 782.192583125 233.45822531249996 648.513681875 276.5229234375z"  horiz-adv-x="1024" />

    
    <glyph glyph-name="tuangou" unicode="&#58892;" d="M824.994 744.274c13.208 0 25.626-5.143 34.966-14.483 9.339-9.339 14.483-21.756 14.482-34.964l0-624.11c0-27.266-22.183-49.448-49.449-49.448L200.884 21.269c-27.266 0-49.448 22.182-49.448 49.448L151.436 694.828c0 27.265 22.182 49.446 49.448 49.446L824.994 744.274M824.994 806.274l-624.11 0c-61.552 0-111.448-49.896-111.448-111.446l0-624.111c0-61.552 49.896-111.448 111.448-111.448l624.109 0c61.552 0 111.449 49.896 111.449 111.448l0 624.11C936.443 756.378 886.545 806.274 824.994 806.274L824.994 806.274zM512.938 345.903c-68.507 0-132.914 26.678-181.356 75.12-48.441 48.442-75.12 112.849-75.12 181.355 0 17.121 13.879 31 31 31s31-13.879 31-31c0-107.234 87.241-194.476 194.476-194.476s194.477 87.241 194.477 194.476c0 17.121 13.879 31 31 31s31-13.879 31-31c0-68.508-26.678-132.915-75.12-181.356C645.853 372.581 581.445 345.903 512.938 345.903z"  horiz-adv-x="1024" />

    
    <glyph glyph-name="miaoshaweixuanzhong" unicode="&#59541;" d="M509.156517 355.96712c0.838056-1.111618 2.045203-2.040861 2.974446-2.978788 11.919495-14.850518 30.022363-24.603226 50.595975-24.603226 35.968649 0 65.174667 29.153911 65.174667 65.17901 0 19.123298-8.406609 36.201394-21.407325 48.094835-1.762956 1.849801-3.343538 3.803817-5.896785 5.65796L337.130203 647.755479c-7.611976 5.853362-18.658677 6.126924-26.739617 0-9.609414-7.425259-11.420135-21.164159-3.990534-30.725808L509.156517 355.96712zM570.013244 896.001424c-17.408107 0-31.516099-14.112334-31.516099-31.468334l0-203.49899c0-17.455872 14.107992-31.563864 31.516099-31.563864 17.409844 0 31.513494 14.107992 31.513494 31.563864L601.526737 831.848924c229.496081-16.800191 417.724223-215.010313 417.724223-447.8508 0-247.506025-201.358258-448.951128-448.868625-448.951128-247.642372 0-449.053605 201.550186-449.053605 449.233375 0 126.537702 53.609501 247.881196 147.102629 332.733233 12.900845 11.698039 13.830087 31.659393 2.13639 44.56458-11.702382 12.905187-31.615971 13.83443-44.521158 2.132048-106.61977-96.827982-167.802167-235.158384-167.802167-379.429862 0-282.508956 229.726221-512.274257 512.13791-512.274257 282.274474 0 511.900823 229.669771 511.900823 511.99201C1082.291843 661.585566 847.689268 896.001424 570.013244 896.001424zM680.303958 2.899099c1.493736 0 3.013526 0.191059 4.550685 0.651339 166.412645 50.04885 282.645303 206.474305 282.645303 380.547559 0 8.723594-7.060509 15.779761-15.736338 15.779761-8.727936 0-15.788445-7.056167-15.788445-15.779761 0-160.239693-106.993204-304.315769-260.221889-350.377559-8.311079-2.40561-13.044139-11.229076-10.534315-19.583578C667.259819 7.362939 673.530038 2.899099 680.303958 2.899099zM570.243383 17.011433c-8.675829-0.451595-15.410669-7.790008-15.037235-16.517944 0.373434-8.458716 7.381836-15.050262 15.736338-15.050262 0.234482 0 0.512386 0 0.738184 0 17.366421 0.842398 34.778871 2.796413 51.765779 5.862047 8.536877 1.485052 14.242602 9.657179 12.714128 18.280901-1.537159 8.545561-9.613756 14.207864-18.289585 12.714128C602.273606 19.529942 586.259363 17.758301 570.243383 17.011433z"  horiz-adv-x="1137" />

    
    <glyph glyph-name="dingwei" unicode="&#58902;" d="M512 896C303.786667 896 136.533333 725.333333 136.533333 517.12c0-157.013333 314.026667-631.466667 375.466667-631.466667 61.44 0 375.466667 474.453333 375.466667 631.466667C887.466667 725.333333 720.213333 896 512 896zM512 360.106667c-85.333333 0-157.013333 71.68-157.013333 157.013333 0 88.746667 71.68 157.013333 157.013333 157.013333s157.013333-71.68 157.013333-157.013333C669.013333 431.786667 597.333333 360.106667 512 360.106667z"  horiz-adv-x="1024" />

    
    <glyph glyph-name="tuikuan" unicode="&#58966;" d="M985.984882 305.991601c-10.320847 14.277171-30.274483 17.545439-44.723669 7.224593l-56.936671-40.939358c9.804804 35.950949 14.965228 73.105997 14.965228 110.777087 0 229.982866-187.151352 416.962204-416.962204 416.962204C252.3447 800.016126 65.365362 613.036788 65.365362 383.053922s187.151352-416.962204 416.962204-416.962204c72.761969 0 143.975811 19.093566 206.760961 55.044515 3.440282 0.688056 6.70855 1.720141 9.804804 3.612296 17.889467 10.664875 35.090879 22.705863 51.088191 35.950949 13.589115 11.180917 15.653284 31.306568 4.300353 45.067697-11.180917 13.589115-31.306568 15.653284-45.067697 4.300353-12.55703-10.320847-26.146145-19.609609-40.079288-28.210314-2.064169-0.688056-4.300353-1.032085-6.364522-2.236183-54.356459-32.510667-116.797581-49.540064-180.614816-49.540064-194.719973 0-352.972955 158.424996-352.972955 352.972955S287.607593 736.026877 482.327566 736.026877 835.300521 577.773896 835.300521 383.053922c0-44.207626-8.256677-87.555182-24.081975-128.150512l-45.239711 108.712918c-6.880564 16.341341-25.630102 23.909961-41.799429 17.201411-16.341341-6.70855-24.081975-25.458088-17.201411-41.799429l72.073912-172.874181c0.688056-1.892155 1.892155-3.268268 2.92424-4.988409 0.344028-0.516042 0.344028-1.032085 0.688056-1.376113 0.172014-0.172014 0.344028-0.172014 0.344028-0.344028 2.752226-3.612296 6.192508-6.536536 10.148833-8.77272 0.688056-0.344028 1.376113-0.688056 2.064169-1.032085 3.268268-1.548127 6.880564-2.752226 10.664875-3.096254 0.688056 0 1.204099 0.172014 1.892155 0 0.344028 0 0.516042-0.172014 0.860071-0.172014 0.688056 0 1.376113 0.172014 2.064169 0.344028 2.408198 0.172014 4.816395 0.516042 7.052579 1.032085 0.516042 0.172014 1.032085 0.344028 1.376113 0.516042 2.580212 0.860071 4.988409 2.064169 7.224593 3.612296 0.344028 0.172014 0.688056 0.344028 1.032085 0.516042l151.372417 108.884932C993.03746 271.760793 996.305728 291.71443 985.984882 305.991601zM606.693768 521.525281c12.729044 12.213002 13.073072 32.510667 0.688056 45.239711-12.213002 12.729044-32.510667 13.073072-45.239711 0.688056l-79.814547-77.062322L402.685033 567.453049c-12.729044 12.213002-33.026709 12.040988-45.239711-0.688056-12.213002-12.729044-12.040988-33.026709 0.688056-45.239711l89.791366-86.695112L447.924744 416.080632l-63.989249 0c-17.717453 0-31.994625-14.277171-31.994625-31.994625s14.277171-31.994625 31.994625-31.994625l63.989249 0 0-31.994625-63.989249 0c-17.717453 0-31.994625-14.277171-31.994625-31.994625s14.277171-31.994625 31.994625-31.994625l63.989249 0 0-67.257517c0-17.717453 14.277171-31.994625 31.994625-31.994625s31.994625 14.277171 31.994625 31.994625L511.913993 256.107509l63.989249 0c17.717453 0 31.994625 14.277171 31.994625 31.994625s-14.277171 31.994625-31.994625 31.994625l-63.989249 0 0 31.994625 63.989249 0c17.717453 0 31.994625 14.277171 31.994625 31.994625s-14.277171 31.994625-31.994625 31.994625l-63.989249 0L511.913993 429.84176 606.693768 521.525281z"  horiz-adv-x="1024" />

    
    <glyph glyph-name="chaping1" unicode="&#58992;" d="M104.6272 115.90656000000001c-11.01824-0.09728-19.85536-9.08288-19.80416-20.10624 0.0512-11.01312 9.03168-19.91168 20.0448-19.91168 0.01024 0 0.02048 0 0.02048 0 0.3072 0 25.89184-0.12288 61.96224-12.20096 48.16896-16.128 91.29472-44.78976 128.17408-85.20192 3.94752-4.32128 9.35424-6.51776 14.78144-6.51776 4.8128 0 9.64608 1.73056 13.48096 5.22752 8.16128 7.4496 8.73984 20.10624 1.29024 28.26752C224.0256 115.63520000000005 109.52704 115.89120000000003 104.6272 115.90656000000001zM888.95488 114.33983999999998c-8.24832 0.55296-145.11616 7.9872-253.90592-108.71808-7.53152-8.07936-7.0912-20.74112 0.99328-28.27264 3.85536-3.59424 8.7552-5.376 13.63456-5.376 5.36064 0 10.7008 2.14016 14.63808 6.36928 40.73984 43.6992 90.4704 73.15456 147.80928 87.53664 42.5984 10.68544 72.832 8.63744 74.10688 8.54016 0.4864-0.03584 0.98304-0.05632 1.47456-0.05632 11.04896 0 20.00896 8.96 20.00896 20.00896C907.71968 105.00095999999996 899.42528 113.69471999999996 888.95488 114.33983999999998zM939.1104 358.24127999999996c-27.65824 67.51744-89.35936 129.32608-138.09152 174.62784 47.28832 30.35136 81.792 71.26528 102.72768 121.9584 3.34848 8.09472 1.03936 17.41824-5.68832 23.01952-58.89024 49.00864-142.42816 91.136-235.2384 118.62016-96.84992 28.68224-194.16064 37.95456-273.98144 26.10688-86.08256-12.7744-151.87968-49.93024-190.40256-107.49952-0.6656-0.80896-1.3056-1.6896-1.89952-2.64192-4.95104-7.89504-19.56864-39.8592-21.2224-43.47904-3.1232-6.85056-7.56736-16.73728-10.97216-24.89344-1.59232-3.80416-2.74944-6.75328-3.55328-9.01632-0.7424-2.08896-1.24416-4.03968-1.54112-5.8624-6.9376-26.73152-8.50944-54.44608-4.82304-82.62656-0.24576-1.28512-0.37376-2.62144-0.3584-3.98336 0.03584-3.40992 1.31584-84.84864 40.68864-199.64928 23.03488-67.15904 54.44608-131.9424 93.35808-192.5376 48.59392-75.68896 109.08672-145.01888 179.7888-206.05952 3.77856-3.27168 8.43264-4.864 13.06624-4.864 5.61664 0 11.19744 2.35008 15.1552 6.93248 7.2192 8.36608 6.29248 21.00224-2.06848 28.22144-67.48672 58.27072-125.24032 124.35968-171.648 196.4288-37.1456 57.68704-67.16928 119.34208-89.23648 183.2448-5.49888 15.91808-10.27584 31.4112-14.42304 46.26944 103.24992-137.73824 299.98592-238.14144 438.61504-257.3824 0.9216-0.12288 1.83808-0.18944 2.74944-0.18944 6.76864 0 13.1584 3.43552 16.8704 9.25184 35.99872 56.448 48.60928 116.0192 36.23936 159.17568 125.22496-6.4512 209.4336 18.94912 213.27872 20.14208 5.37088 1.64864 9.79456 5.48864 12.19584 10.56768S941.24032 353.03936 939.1104 358.24127999999996z"  horiz-adv-x="1024" />

    
    <glyph glyph-name="haoping" unicode="&#59133;" d="M405.534-36.12800000000004c-8.8 0-17.567 3.585-23.902 10.69-83.232 93.215-217.857 94.11-220.639 94.11-0.097 0-0.097 0-0.192 0-17.567 0-31.905 14.18-32.032 31.745-0.128 17.665 14.017 32.065 31.647 32.255 6.657 0.355 165.665 0.195 268.959-115.485 11.777-13.185 10.625-33.41-2.56-45.185C420.734-33.43799999999999 413.119-36.12800000000004 405.534-36.12800000000004zM620.128-36.06299999999999c-7.78 0-15.585 2.815-21.76 8.545-12.96 12-13.76 32.255-1.73 45.215 106.975 115.52 262.749 115.395 268.894 115.135 17.695-0.19 31.875-14.655 31.68-32.32-0.19-17.565-14.465-31.68-32-31.68-0.095 0-0.16 0-0.255 0l0 0c-2.655 0-134.56-0.86-221.374-94.62C637.308-32.638000000000034 628.703-36.06299999999999 620.128-36.06299999999999zM563.709 126.69200000000001L462.304 126.69200000000001c-3.233 0-6.37 0.48-9.345 1.405-108.255 13.89-200.254 76.705-259.552 177.44-68.832 116.992-84.607 268.577-39.2 377.217 4.897 11.68 16.225 19.392 28.897 19.647l9.63 0.095c60.96 0 117.89-11.52 169.697-34.302 37.44 68.447 80.192 120.382 127.327 154.687 2.495 2.175 5.345 4 8.512 5.345l0 0c9.887 4.287 21.377 3.36 30.432-2.53 1.565-1.022 3.04-2.175 4.385-3.455 47.26-34.687 88.83-85.855 126.46-155.745 52.835 23.872 111.075 35.97 173.635 35.97l9.79-0.097c12.675-0.255 24-7.967 28.895-19.647 45.41-108.672 29.665-260.254-39.23-377.249-59.295-100.67-151.265-163.52-259.489-177.44C570.109 127.202 566.974 126.69200000000001 563.709 126.69200000000001zM512.766-63.99800000000005c-17.662 0-32 14.305-32 32l0 190.69c0 17.695 14.337 32 32 32s32.002-14.305 32.002-32l0-190.69C544.734-49.692999999999984 530.429-63.99800000000005 512.766-63.99800000000005z"  horiz-adv-x="1024" />

    
    <glyph glyph-name="zhongping1" unicode="&#59525;" d="M752.97792 608.24576c0 0 2.52928 171.52512-58.54208 198.272-61.06624 26.74176-196.2496-89.19552-196.2496-89.19552s-156.83584 158.1568-175.2064 116.20352C277.57056 729.81504 240.64 649.5897600000001 214.528 565.4015999999999c-28.0832-166.07232 28.37504-291.10272 153.12384-366.97088-2.33984-5.46816-4.21888-12.47232-5.504-21.26848-3.05152-72.03328 56.68352-223.78496 80.59904-264.72448 30.85312 0 79.26272-3.0464 79.26272-3.0464s-77.26592 146.82624-81.93024 253.6192c143.70304-54.02112 282.57792-2.93888 393.71264 137.4976 50.48832 63.7952 87.08608 149.6064 129.46944 246.38976C978.51904 581.75488 752.97792 608.24576 752.97792 608.24576zM541.66016-54.871039999999994c29.96736-10.71104 46.85824-6.30784 65.57696-2.70848 52.35712 88.51456 133.02272 107.29984 246.99392 111.52896 5.5808 19.34336 17.53088 33.26976 11.13088 52.5312C794.38848 108.64128000000005 613.7088 110.56128000000001 541.66016-54.871039999999994zM76.30848 106.30143999999996c-15.73888-17.98656-3.23072-49.00864 0-62.59712 121.05728 28.05248 210.3296-44.24192 241.73056-102.1696 15.744 0.1792 55.49568 5.12 69.7088 10.15296C385.5872 3.7785599999999704 268.79488 125.62944000000005 76.30848 106.30143999999996z"  horiz-adv-x="1024" />

    
    <glyph glyph-name="haoping1" unicode="&#58934;" d="M526.790868 165.596781l-28.581965 0c-45.156456 0-86.742597 5.426593-123.605156 16.129352-36.052101 10.467399-68.798922 26.323529-97.331769 47.12632-52.806693 38.501896-92.538603 93.89039-121.467469 169.328523-26.620287 69.421092-27.990494 255.926834-28.03552 263.832897l-0.001023 0.150426c0 0.848321 0.016373 1.692548 0.034792 2.536776l0.017396 0.893346 0.397043 25.953092 0.353041 0c0.013303 3.974521 0.002047 7.820106-0.061398 11.533684 1.107217 41.687448 22.031782 59.631122 29.611411 65.10274 6.083555 3.084245 40.196491 14.295588 78.828346-7.691169l123.57855-62.895469c13.468756 27.998681 32.992415 53.91391 56.694233 74.894757 30.80868 27.270087 67.289546 53.453423 96.411817 53.453423 29.284977 0 61.104683-25.761734 90.977038-52.29504 23.194258-20.6012 42.3659-46.505173 55.637158-74.8088l130.124639 62.007239c28.381397 14.985296 58.266032 21.521153 81.880869 12.281721 17.853623-15.360849 25.915229-42.948161 25.872251-69.644173l-0.008186-5.583159c-0.067538-45.166689-0.152473-101.342106-3.096525-138.607848-4.03592-77.367065-12.896728-131.990127-26.335808-162.349575-33.906228-76.589352-73.103972-129.730667-123.359562-167.237909C687.522596 186.568419 616.039541 165.596781 526.790868 165.596781zM180.839695 638.834966c1.430582-62.588477 7.364735-177.919179 24.183795-221.779106 51.994188-135.592165 145.155984-198.744483 293.184389-198.744483l28.581965 0c145.723919 0 230.812853 57.93755 293.692972 199.976544 10.543124 23.815405 18.325367 74.994018 21.913079 144.109142l0.048095 0.729617c2.808976 35.210943 2.891863 90.462315 2.959402 134.859477l0.008186 5.589298c0.019443 12.248975-0.867764 19.127639-1.670036 22.835078-4.52506-1.038656-13.353123-4.015454-29.199019-12.406564l-0.9967-0.50142-183.568852-87.47426-9.080819 28.970822c-9.435906 30.102598-27.65178 58.245566-51.2922 79.243809-19.755949 17.547655-39.901779 38.993083-55.970756 38.993083-30.798447 0-93.338828-54.266951-114.242927-120.169917l-9.392928-29.611411-178.704055 90.988294c-16.97358 9.752108-25.243941 9.04398-26.381857 8.347109-0.786922-0.532119-3.921309-5.550413-3.696182-18.807345 0.124843-7.291057 0.067538-14.667048 0.007163-22.474874-0.040932-5.301749-0.082888-10.782577-0.063445-16.21531l0.098237-26.454512L180.839695 638.838036zM487.571634 166.593482l49.751101 0 0-200.001103-49.751101 0 0 200.001103ZM616.641245-29.446403l-38.807864 18.054191c0.696872 1.717108 17.550725 42.535769 58.255799 84.929298 23.802102 24.789593 50.992371 45.197388 80.814584 60.653405 37.135782 19.247366 78.386278 30.78719 122.605386 34.298154l3.140527-45.075615c-69.743434-5.54018-128.856763-32.752961-175.698604-80.885192C631.626541 6.231167 616.786555-29.093363 616.641245-29.446403zM413.407518-29.446403l38.527478 18.054191c-0.691755 1.717108-17.423835 42.535769-57.83522 84.929298-23.630187 24.789593-50.622958 45.197388-80.230276 60.653405-36.867676 19.247366-77.819366 30.78719-121.718179 34.298154l-3.116991-45.075615c69.238944-5.54018 127.925554-32.752961 174.427658-80.885192C398.529669 6.231167 413.263232-29.093363 413.407518-29.446403z"  horiz-adv-x="1024" />

    
    <glyph glyph-name="zhiding" unicode="&#58897;" d="M512 832C264.576 832 64 631.424 64 384s200.576-448 448-448 448 200.576 448 448S759.424 832 512 832zM697.1392 329.6512 524.2368 502.5536l0-348.8512-24.4736 0L499.7632 502.5536 326.8608 329.6512l-17.3056 17.3056L494.7072 532.096 512 549.4016l17.3056-17.3056 0 0 185.1264-185.1392L697.1392 329.6512zM716.6464 589.824 307.3536 589.824l0 24.4736 409.3056 0L716.6592 589.824z"  horiz-adv-x="1024" />

    
    <glyph glyph-name="chaping" unicode="&#59332;" d="M107.822193 122.615874c-11.022031-0.106424-19.857257-9.117658-19.766183-20.140713 0.094144-10.971889 9.030677-19.807115 19.98517-19.807115 0.047072 0 0.097214 0 0.143263 0 1.456165-0.035816 146.629545-0.144286 236.876965-101.211123 3.946892-4.41659 9.41544-6.668886 14.905478-6.668886 4.734838 0 9.488095 1.674129 13.298887 5.076622 8.229428 7.347339 8.94165 19.97596 1.595334 28.205389C272.316617 122.89933 114.455263 122.701832 107.822193 122.615874zM904.746454 129.927397c-6.53381 0.082888-160.988578 0.317225-267.160689-114.350374-7.494695-8.092305-7.011694-20.730137 1.087774-28.227901 3.841491-3.557012 8.708336-5.316076 13.566994-5.316076 5.368264 0 10.724249 2.153036 14.659885 6.40385 93.087095 100.530624 233.615689 101.540627 237.400898 101.540627 0.161682-0.002047 0.169869 0 0.245593 0 10.93505 0 19.85828 8.81169 19.970844 19.770276C924.626223 120.77904 915.778718 129.81381 904.746454 129.927397zM529.323039-6.487505c-22.922059 17.192567-46.417169 38.231743-70.64906 60.007699-24.232914 21.774933-102.576213 105.84977-122.223692 138.924049-19.647479 32.991392-36.020378 52.148707-58.696844 108.061135-22.666232 55.888891-23.084765 95.006817-23.085788 95.043656 31.630395-51.838645 75.937506-98.346889 124.679627-133.273353 134.99353-96.846722 299.705919-147.356093 299.705919-147.356093 34.710546 106.833167-13.344936 197.865463-13.344936 197.865463 28.570709-2.946099 56.405661-4.175089 82.520435-4.175089 91.851964 0 161.764244 14.326287 161.764244 14.326287s-43.306318 91.116207-131.146922 183.050036c0 0 78.180594 36.59343 157.097968 114.610294 0 0-129.018445 85.712127-297.004391 139.66083-44.451398 14.326287-98.562806 24.150026-153.494906 24.150026-100.365872 0-203.434296-32.745798-255.008928-131.146922-27.522844-52.43114-30.293957-109.150956-16.186657-164.188456-0.007163-0.011256-0.014326-0.021489-0.021489-0.031722 0 0-20.302395-50.755987-1.964748-140.806933s79.490425-174.945451 87.840604-188.862415c28.898167-47.971571 72.696696-92.179422 96.354512-114.036219 38.721907-35.775808 105.115036-94.635357 103.394858-90.62502 0 0 17.192567-15.553231 35.201733 2.210341C535.05253-43.080935 552.245098-23.678026 529.323039-6.487505zM273.822924 630.50116c9.741875 18.583241 22.267143 34.95614 37.166481 48.545646 13.998829 12.770861 30.453592 23.576975 49.036833 32.009018 17.845437 8.18645 37.821397 14.326287 59.515488 18.419512 20.547988 3.847631 42.733267 5.812379 65.900919 5.812379 45.679365 0 94.798063-7.695263 138.432863-21.694091 82.845847-26.687826 155.706271-61.562101 202.287169-86.12145 9.741875-5.157463 18.828834-10.069333 27.097148-14.653745-19.23918-15.390525-36.675294-27.506471-50.265824-36.265972-26.031886-16.864086-43.960211-25.541723-45.025473-26.03291l-62.134129-28.734438 47.479361-49.691749c39.049365-40.850383 68.521606-81.537038 87.432305-110.35334-23.577998-2.210341-51.821249-3.929496-82.520435-3.929496-26.76969 0-52.8026 1.308809-77.443813 3.847631l-91.523483 9.577123 42.97886-81.372286c0.081864-0.163729 9.085936-18.012236 15.062044-46.172599 3.683902-17.35425 5.40408-34.874275 5.158487-51.984978-0.081864-3.847631-0.245593-7.777127-0.491187-11.623735-57.059554 21.856797-151.777799 63.117526-234.050594 122.060987-57.878199 41.504276-105.850793 98.973152-131.719974 157.833725-13.343913 30.371728-20.466124 60.170404-21.203928 88.49552C254.25731 577.780425 260.643764 605.36876 273.822924 630.50116z"  horiz-adv-x="1024" />

    
    <glyph glyph-name="xiaoxi" unicode="&#58903;" d="M510.971066 48.064948c-28.703739 0-74.801636 0-74.801636 0L230.478743-64.139553 230.478743 141.549086C127.943462 213.529467 62.172503 316.831204 62.172503 440.781214c0 216.874399 200.940498 392.697847 448.798563 392.697847 247.862157 0 448.801632-175.824471 448.801632-392.697847C959.791118 223.869976 758.850619 48.064948 510.971066 48.064948L510.971066 48.064948 510.971066 48.064948zM510.971066 777.395742c-216.872353 0-392.733663-150.708444-392.733663-336.614527 0-114.073058 67.078745-219.61993 168.343079-280.493346L286.580482 35.611312l149.568481 68.555375c0 0 42.057885 0 74.803683 0 216.873376 0 392.735709 150.709467 392.735709 336.614527C903.707798 626.704694 727.845465 777.395742 510.971066 777.395742L510.971066 777.395742 510.971066 777.395742zM735.398488 384.679475c-31.005155 0-56.119135 25.116027-56.119135 56.121182s25.113981 56.121182 56.119135 56.121182c30.971385 0 56.087413-25.116027 56.087413-56.121182S766.369873 384.679475 735.398488 384.679475L735.398488 384.679475 735.398488 384.679475zM510.971066 384.679475c-31.005155 0-56.120159 25.116027-56.120159 56.121182s25.113981 56.121182 56.120159 56.121182c31.007201 0 56.123228-25.116027 56.123228-56.121182S541.978267 384.679475 510.971066 384.679475L510.971066 384.679475 510.971066 384.679475zM286.56411 384.679475c-30.968315 0-56.084343 25.116027-56.084343 56.101739 0 30.987758 25.116027 56.122205 56.084343 56.122205 31.005155 0 56.120159-25.116027 56.120159-56.122205S317.549821 384.679475 286.56411 384.679475L286.56411 384.679475 286.56411 384.679475z"  horiz-adv-x="1024" />

    
    <glyph glyph-name="shangdian" unicode="&#58914;" d="M962.068687 727.660606 79.385859 727.660606 0 484.977778c0-74.989899 57.406061-132.39596 132.39596-132.39596 70.593939 0 132.39596 61.80202 132.39596 132.39596 0-74.989899 57.406061-132.39596 132.39596-132.39596 70.593939 0 132.39596 61.80202 132.39596 132.39596 0-74.989899 57.406061-132.39596 132.39596-132.39596 70.593939 0 132.39596 61.80202 132.39596 132.39596 0-74.989899 57.406061-132.39596 132.39596-132.39596 70.593939 0 132.39596 61.80202 132.39596 132.39596L962.068687 727.660606 962.068687 727.660606M167.692929 767.482828l706.068687 0c26.505051 0 48.484848 17.713131 48.484848 39.692929 0 22.109091-22.109091 39.692929-48.484848 39.692929L167.692929 846.868687C141.187879 846.868687 119.208081 829.155556 119.208081 807.175758 119.208081 785.066667 141.187879 767.482828 167.692929 767.482828L167.692929 767.482828M781.187879 348.185859c-35.29697-35.29697-79.385859-53.010101-132.39596-53.010101-48.484848 0-97.09899 17.713131-132.39596 53.010101-35.29697-35.29697-79.385859-53.010101-132.39596-53.010101-48.484848 0-97.09899 17.713131-132.39596 53.010101-35.29697-35.29697-79.385859-53.010101-132.39596-53.010101-4.39596 0-8.791919 0-8.791919 0l0-295.692929c0-48.484848 44.088889-79.385859 79.385859-79.385859l639.870707 0c48.484848 0 79.385859 35.29697 79.385859 79.385859L909.058586 295.175758c-4.39596 0-8.791919 0-8.791919 0C864.969697 295.175758 816.484848 312.888889 781.187879 348.185859L781.187879 348.185859M781.187879 348.185859 781.187879 348.185859z"  horiz-adv-x="1060" />

    
    <glyph glyph-name="icon182" unicode="&#59060;" d="M61.310368 864.423841l385.011794 0c39.146579-3.818979 29.705556-71.771627 29.705556-115.919103l0-210.175837c0-45.684482 8.729825-101.669564-21.959128-114.647133-19.987217-8.448416-73.621764-2.547009-99.482759-2.547009L150.467967 421.134759c-47.197952 0-111.624287-11.099802-118.868271 29.297256L31.599695 835.126584C36.875862 849.453894 46.156226 859.836359 61.310368 864.423841L61.310368 864.423841 61.310368 864.423841 61.310368 864.423841zM114.285906 777.803018l0-273.869484 277.772374 0L392.05828 781.627113 115.583458 781.627113C114.072035 781.417335 114.171296 779.613246 114.285906 777.803018L114.285906 777.803018 114.285906 777.803018 114.285906 777.803018zM578.093301 864.423841l385.012817 0c15.70161-5.743818 26.493397-16.337083 29.709649-34.392298l0-374.504486c-3.52529-15.561417-11.763928-28.847002-27.131941-33.115212-25.107841-6.966669-66.843384-1.276063-96.893794-1.276063L671.116951 421.135782c-29.809933 0-73.989131-6.187933-98.185206 1.276063-34.167171 10.540054-24.541953 76.289524-24.541953 122.289184l0 196.167798C548.388768 793.965116 536.562419 857.001801 578.093301 864.423841L578.093301 864.423841 578.093301 864.423841 578.093301 864.423841zM631.070886 777.803018l0-273.869484 277.771351 0L908.842237 781.627113 632.358205 781.627113C630.857015 781.417335 630.956276 779.613246 631.070886 777.803018L631.070886 777.803018 631.070886 777.803018 631.070886 777.803018zM240.895489 697.552276c38.685068 7.197936 69.102844-18.574031 69.76697-53.494355 0.868787-46.066175-46.845934-71.368444-83.974553-52.234665C184.205349 613.720985 186.998975 687.525921 240.895489 697.552276L240.895489 697.552276 240.895489 697.552276 240.895489 697.552276zM757.679445 697.552276c91.124394 16.786315 89.378633-125.494179 0-110.816898C700.807157 596.072023 698.971345 686.741046 757.679445 697.552276L757.679445 697.552276 757.679445 697.552276 757.679445 697.552276zM443.742407-96.036008 62.600757-96.036008c-15.82236 4.786003-26.50977 14.625092-31.002085 30.573319L31.598672 317.954795c3.761674 11.225669 12.449543 24.311709 25.834388 28.02631 25.296129 7.013741 66.602907 1.276063 96.904027 1.276063L352.000959 347.257168c29.214369 0 71.734788 6.42841 98.19237-1.276063 35.798321-10.41521 25.838482-75.102489 25.838482-121.013121l0-202.533786C476.027717-27.115312 486.854297-91.610208 443.742407-96.036008L443.742407-96.036008 443.742407-96.036008 443.742407-96.036008zM114.285906 260.636345l0-273.874601 277.772374 0L392.05828 264.46044 115.583458 264.46044C114.072035 264.241452 114.171296 262.441457 114.285906 260.636345L114.285906 260.636345 114.285906 260.636345 114.285906 260.636345zM992.81679 312.859753l0-106.998943c-3.012613-36.086893-0.428765-77.701686-1.286296-115.917056L716.335828 89.943754l0 62.412468c-25.838482 2.981914-57.275471 0.433882-85.264942 1.287319-3.018753-80.678484-0.429789-166.875658-1.292436-249.672386l-50.392714 0c-43.321668 8.562003-31.002085 72.65474-31.002085 123.559107L548.383652 224.969007c0 29.688159-6.099928 74.203002 1.292436 98.086969 8.813736 28.502148 47.029106 24.202215 85.270059 24.202215l187.333596 0 0-169.413458 86.562495 0c0.853437 56.042387-1.720178 115.489314 1.287319 169.413458C951.787328 349.689566 990.374158 349.087862 992.81679 312.859753L992.81679 312.859753 992.81679 312.859753 992.81679 312.859753zM247.355621 181.663712c41.312918 4.508687 75.453483-34.637892 59.436694-77.712943-22.214954-59.694567-128.414695-37.254485-108.526739 38.220487C203.756637 163.031353 219.643466 178.634726 247.355621 181.663712L247.355621 181.663712 247.355621 181.663712 247.355621 181.663712zM809.359478-96.036008l-93.02365 0c0.86367 32.702819-1.721201 68.788689 1.297552 99.363032l91.726098 0L809.359478-96.036008 809.359478-96.036008 809.359478-96.036008 809.359478-96.036008zM992.81679 3.327024l0-64.969711c-3.592828-18.10945-14.332427-29.167297-31.007201-34.392298l-65.88557 0c0.857531 32.702819-1.720178 68.788689 1.292436 99.363032L992.81679 3.328048 992.81679 3.327024 992.81679 3.327024 992.81679 3.327024zM992.81679 3.327024"  horiz-adv-x="1024" />

    
    <glyph glyph-name="zhifu" unicode="&#58940;" d="M799.488-4.448H159.936c-52.928 0-96 43.072-96 96V670.048c0 52.928 43.072 96 96 96h642.496c52.928 0 96-43.072 96-96V576c0-17.664-14.304-32-32-32s-32 14.336-32 32v94.048c0 17.632-14.336 32-32 32H159.936c-17.632 0-32-14.368-32-32v-578.496c0-17.664 14.368-32 32-32h639.552c17.664 0 32 14.336 32 32v98.944c0 17.696 14.304 32 32 32s32-14.304 32-32v-98.944c0-52.928-43.04-96-96-96zM630.144 381.888a31.328 31.328 0 1 1 62.656 0 31.328 31.328 0 1 1-62.656 0zM896 256H576c-35.296 0-64 28.704-64 64V448c0 35.296 28.704 64 64 64h320c35.296 0 64-28.704 64-64v-128c0-35.296-28.704-64-64-64zM576 448v-128h320.064L896 448H576z"  horiz-adv-x="1024" />

    
    <glyph glyph-name="you" unicode="&#58891;" d="M681.322 357.732c0.011 0 0.025 0 0.040 0 6.564 0 12.506 2.667 16.801 6.978 4.312 4.31 6.979 10.264 6.979 16.841 0 6.577-2.666 12.532-6.978 16.84l-345.758 345.736c-9.302 9.302-24.375 9.302-33.681 0s-9.302-24.375 0-33.681l345.755-345.741c4.298-4.308 10.241-6.974 16.808-6.974 0.013 0 0.025 0 0.038 0zM336.843 13.252c0.011 0 0.025 0 0.040 0 6.564 0 12.506 2.667 16.801 6.977l344.478 344.481c9.302 9.302 9.302 24.375 0 33.681s-24.375 9.302-33.681 0l-344.477-344.483c-4.313-4.31-6.982-10.265-6.982-16.843 0-13.15 10.66-23.811 23.812-23.811 0.005 0 0.008 0 0.011 0z"  horiz-adv-x="1024" />

    
    <glyph glyph-name="chuzhika" unicode="&#58921;" d="M1017.74222222 656.61155555c-14.67733333 59.61955555-68.49422222 104.10666667-132.43733333 104.10666667H138.69511111c-63.82933333 0-117.76-44.60088889-132.43733333-104.10666667h1011.48444444zM2.27555555 591.41688889v-447.71555556c0-74.97955555 61.44-136.41955555 136.41955556-136.41955555h746.60977778c74.97955555 0 136.41955555 61.44 136.41955556 136.41955555V591.41688889H2.27555555z m657.29422223-174.99022222c-2.16177778-4.096-5.68888889-9.44355555-10.46755556-15.81511112l-76.68622222-102.8551111h33.792c25.03111111 0 37.54666667-6.59911111 37.54666667-19.91111112 0-13.65333333-12.51555555-20.36622222-37.54666667-20.36622222h-60.18844445v-31.17511111h60.18844445c25.03111111 0 37.54666667-6.71288889 37.54666667-20.36622222 0-13.19822222-12.51555555-19.91111111-37.54666667-19.91111111h-60.18844445v-17.408c0-29.24088889-12.06044445-43.91822222-36.06755555-43.91822222-24.34844445 0-36.52266667 14.67733333-36.52266667 43.91822222V186.02666667000005h-59.96088888c-25.25866667 0-37.77422222 6.59911111-37.77422223 19.91111111 0 13.65333333 12.51555555 20.36622222 37.77422223 20.36622222h59.96088888v31.17511111h-59.96088888c-25.25866667 0-37.77422222 6.71288889-37.77422223 20.36622222 0 13.19822222 12.51555555 19.91111111 37.77422223 19.91111112h33.90577777l-79.64444444 101.60355555c-6.37155555 8.07822222-10.58133333 13.88088889-12.51555556 17.408-1.93422222 3.52711111-2.95822222 7.28177778-2.95822222 11.49155555 0 7.50933333 2.84444445 13.42577778 8.41955555 18.09066667 5.57511111 4.55111111 12.85688889 6.82666667 21.73155556 6.82666667 9.10222222 0 16.27022222-2.16177778 22.07288889-6.71288889 5.57511111-4.55111111 12.17422222-11.60533333 19.56977778-21.61777778l86.016-109.45422222 76.91377777 103.31022222c2.84444445 3.98222222 5.80266667 8.30577778 9.10222223 12.74311111 3.18577778 4.43733333 6.37155555 8.192 9.32977777 11.264 2.95822222 3.072 6.71288889 5.68888889 11.264 7.62311112 4.55111111 2.048 9.89866667 2.95822222 16.04266667 2.95822222 8.98844445 0 16.04266667-2.16177778 21.73155556-6.59911112 5.57511111-4.43733333 8.41955555-9.67111111 8.41955555-16.04266666 0.11377778-5.46133333-1.024-10.12622222-3.29955555-14.22222222z"  horiz-adv-x="1024" />

    
    <glyph glyph-name="icon-test" unicode="&#58916;" d="M853.418547 177.706905c-84.026584 0-152.18216-68.410592-152.18216-152.8222 0-84.472862 68.091822-152.885955 152.18216-152.885955s152.245914 68.346838 152.245914 152.885955c0 84.412858-68.21933 152.822201-152.245914 152.8222m100.473878-112.887165s-109.49695-108.090611-110.073237-108.666898c-12.479542-12.349534-19.007457-10.366908-24.509056-4.734051l-65.53416 65.721672c-5.502849 5.569104-5.182829 14.913447 0.768799 20.862574 5.887874 6.017882 15.230967 6.337902 20.80007 0.705045l53.5634-53.758412 103.737835 101.691455c6.016632 5.886624 15.614741 5.759116 21.502615-0.256267 5.886624-6.079136 5.759116-15.742249-0.256266-21.565118M348.298984 792.454677h233.264807c24.57531 0 45.309126 23.166471 45.309126 51.837041C626.874167 872.897284 606.202855 896 580.218705 896H348.298984c-25.854141 0-46.525453-23.102716-46.525453-51.708282 0-28.606816 20.735066-51.83704 46.525453-51.837041m487.5847-567.198504c27.135472 0 52.92586-5.566603 76.347346-15.807253V721.675184c0 70.26696-37.692393 118.903798-116.664905 118.903798h-105.144174c1.023815-5.631607 1.663856-11.390723 1.663855-17.214843 0.063754-43.516512-31.423245-86.33048-68.795617-86.33048H300.365941c-39.357498 0-70.844497 42.813968-70.844497 86.33048 0.065004 5.760366 0.705045 11.583235 1.72886 17.214843H124.824798C39.325621 840.578982 18.334289 791.942145 18.334289 721.675184v-695.445394c0-75.451039 30.078159-117.689971 112.95217-117.689971h556.831595c-27.839267 33.470875-44.606581 76.667367-44.606581 123.704103 0 106.618018 86.075464 193.012252 192.372211 193.012251M242.769785 576.467217h455.778931c16.831068 0 31.03822-15.742249 32.319552-33.917153 0-16.959827-17.663621-35.13473-34.49469-35.13473H239.312066c-16.894822 0-27.581751 18.174904-27.581751 35.13473 0.00125 16.958576 14.208402 33.917153 31.03947 33.917153m205.234278-458.91538H239.312066c-16.894822 0-27.581751 18.174904-27.581751 35.13348s14.207152 33.854649 31.03822 33.854649h207.410666c16.894822 0 31.101974-15.615991 32.382055-33.854649 0-16.958576-17.726125-35.13348-34.557193-35.13348m-210.610869 191.924683c-16.831068 0-33.662137 20.733816-33.662137 37.694892 0 16.893572 14.207152 31.290736 31.103224 31.290736H690.614463c16.829818 0 31.03697-13.118333 32.380805-31.290736 0-16.961077-11.646989-37.694893-28.476807-37.694892H237.393194m0 0z"  horiz-adv-x="1024" />

    
    <glyph glyph-name="huodaofukuan" unicode="&#58899;" d="M896.022 896H127.978C57.625 896 0 838.375 0 768.022v-768.044C0-70.375 57.625-128 127.978-128h768.044C966.375-128 1024-70.375 1024-0.022V768.022C1024 838.375 966.375 896 896.022 896zM140.019 691.475s7.397 7.225 0 0c45.24 22.018 67.774 44.208 90.308 73.622 0 0 0 7.397 7.569 7.397h30.102c7.569 0 7.569-7.397 7.569-14.793-15.138-14.794-22.534-29.415-30.103-36.811v-7.397l-15.137-88.243s0-7.397-7.569-7.397h-30.102c-7.569 0-7.569 0-7.569 7.397v36.81c0 14.794 0 14.794-7.568 14.794-7.57 0-15.138-7.397-30.103-7.397l-7.569 7.397v14.621h0.172z m248.389-117.83h-165.65s-7.568 0-7.568-7.396l-7.569-66.225s0-7.397-7.569-7.397h-29.93c-7.569 0-7.569 0-7.569 7.397l7.569 103.036s0 7.397 7.569 7.397h263.525c7.569 0 7.569 0 7.569-7.397l-7.569-103.036s0-7.397-7.568-7.397h-30.103c-7.569 0-7.569 0-7.569 7.397l7.57 73.622h-15.138zM124.882 448.592s0 7.397 0 0c105.445 14.794 158.081 44.208 150.685 80.847v22.018s0 7.396 7.568 7.396h37.671c7.569 0 7.569 0 7.569-7.396v-21.846c-7.569-36.811 37.671-58.829 135.547-73.622 7.569 0 7.569-7.397 7.569-7.397v-14.793c0-7.397-7.569-7.397-7.569-7.397-75.342 7.397-120.41 22.018-150.684 44.208h-7.569c-45.24-29.414-97.876-36.81-173.218-44.208-7.569 0-7.569 0-7.569 7.397v14.793z m90.48-191.107l-22.706-257.506s0-7.396-7.569-7.396h-37.67v7.396l15.136 205.901s0 7.397-7.568 7.397c-7.569-7.397-15.138-7.397-30.103-14.793 0 0-7.568 0-7.568 7.396v14.794c37.67 22.017 60.205 58.828 75.342 117.657H237.896s7.568 0 7.568-7.396c-7.568-29.415-15.137-51.433-30.102-73.45z m60.205-139.848c0 29.415-7.569 58.829-15.138 80.847 0 0 0 7.396 7.569 7.396h37.672l22.533-88.243s0-7.396-7.569-7.396l-45.067 7.396c7.568-7.396 0-7.396 0 0z m203.32 139.848c0-7.397 0-7.397 0 0l-37.67-7.397s-7.57 0-7.57-7.397L418.51 44.014c0-36.81-22.534-51.432-60.205-51.432h-37.67s-7.57 0-7.57 7.396v22.018s0 7.397 7.57 7.397h22.533c15.137 0 22.534 7.397 22.534 22.018l15.137 191.28s0 7.396-7.568 7.396H245.292s-7.569 0-7.569 7.397V279.5s0 7.397 7.57 7.397h135.546s7.569 0 7.569 7.397v51.432s0 7.396 7.568 7.396h37.672s7.568 0 7.568-7.396v-44.208s0-7.396 7.569-7.396h30.102s7.569 0 7.569-7.397l-7.569-29.242z m14.966 419.198c0-29.414-22.534-51.432-52.637-51.432h-75.342c-37.671 0-52.636 14.793-52.636 51.432 0 7.397 0 7.397-7.569 7.397h-30.274s-7.569 0-7.569 7.396v7.397s0 7.396 7.569 7.396h30.102s7.569 0 7.569 7.397l7.568 51.432s0 7.397 7.569 7.397h30.102c7.569 0 7.569 0 7.569-7.397v-36.81c0-7.397 7.569-7.397 7.569-7.397 30.102 7.396 52.636 22.017 67.773 36.81h37.671c7.569 0 7.569-7.396 7.569-14.793-30.103-22.017-67.774-44.207-127.979-51.432 0-14.793 7.569-29.414 22.534-22.018h45.24c15.137 0 22.534 7.397 22.534 22.018v7.397h30.102c7.569 0 7.569 0 7.569-7.397l7.397-14.793z m293.8 66.225h22.533c7.57 0 7.57 0 7.57-7.396L795.22 507.42s0-7.397-7.568-7.397h-22.534c-7.569 0-7.569 0-7.569 7.396l22.534 228.09s0 7.397 7.569 7.397z m-226.027-95.64c0 7.397 0 7.397 0 0 22.534 22.018 37.671 36.812 52.636 58.83 0 7.396 0 14.793-7.568 14.793h-37.671c-7.569 0-7.569 7.396-7.569 14.793v14.793s0 7.397 7.569 7.397h188.183c7.569 0 7.569 0 7.569-7.397v-14.793s0-7.397-7.569-7.397H666.726c-15.137-29.414-30.102-44.207-45.239-58.829-7.569-7.396 0-14.793 7.569-14.793h75.342s0 7.397-7.569 14.793c0 7.397-7.568 14.794-7.568 22.018 0 7.397 0 7.397 7.568 7.397h22.534s7.569 0 7.569-7.397c7.568-14.793 15.137-44.207 22.533-73.622 0-7.396 0-7.396-7.568-7.396h-22.534s-7.569 0-7.569 7.396l-7.568 7.397c-37.671 0-82.911-7.397-135.547-7.397-7.569 0-7.569 0-7.569 7.397v22.018h0.516z m-30.102-176.486s0 7.397 7.568 7.397h67.774s7.568 0 7.568 7.396V529.61c0 7.397 0 7.397-7.568 7.397h-45.24l-7.569 7.396v14.793s0 7.397 7.57 7.397h52.635s7.569 0 7.569 7.397v22.017s0 7.397 7.569 7.397h30.102c7.569 0 7.569 0 7.569-7.397v-14.793c0-7.396 0-7.396 7.568-7.396h60.205c7.569 0 7.569 0 7.569-7.397v-14.793s0-7.397-7.569-7.397h-52.636s-7.569 0-7.569-7.396v-44.208c0-7.397 0-7.397 7.569-7.397s22.534 0 45.24 7.397h15.137c7.569 0 7.569 0 7.569-7.397v-14.793s0-7.397-7.57-7.397c-60.204-14.793-127.978-14.793-195.751-14.793-7.569 0-7.569 0-7.569 7.397l-7.74 15.137z m127.978-213.297h45.24s7.568 0 7.568-7.397v-22.018s0-7.396-7.568-7.396H554.057s-7.568 0-7.568 7.396v22.018s0 7.397 7.568 7.397h52.637s7.568 0 7.568 7.396v22.018s0 7.397-7.568 7.397H538.92v22.017s0 7.397 7.569 7.397h60.205s7.568 0 7.568 7.397v14.793s0 7.396 7.569 7.396h37.671s7.569 0 7.569-7.396v-14.793s0-7.397 7.568-7.397h60.205s7.569 0 7.569-7.397v-22.017s0-7.397-7.569-7.397H674.64s-7.568 0-7.568-7.397l-7.569-22.017z m45.24-66.226v-22.018s0-7.396-7.569-7.396H546.49s-7.569 0-7.569 7.396v22.018s0 7.397 7.569 7.397l158.253-7.397c0 7.397 0 7.397 0 0zM523.955 21.996V36.79c15.137 7.396 22.534 29.414 30.102 51.432h37.672s7.568 0 7.568-7.397c-14.965-29.414-37.67-51.432-75.342-58.829 7.569-7.224 0-7.224 0 0z m120.582 81.019l-7.569-66.225c0-29.415-15.137-44.208-45.24-44.208h-22.533s-7.569 0-7.569 7.396v22.018h7.569c15.137 0 15.137 0 15.137 14.794l7.397 66.225s0 7.397-7.57 7.397H538.92l-7.568 7.396v22.018s0 7.397 7.568 7.397h180.787s7.569 0 7.569-7.397v-22.018s0-7.396-7.569-7.396l-75.17-7.397c7.568 7.225 0 7.225 0 0zM877.96-0.022s-7.569-7.396-7.569 0c-30.102 29.415-60.205 58.83-67.773 88.244 0 0-7.569 7.396-7.569 0-15.137-36.811-45.24-66.226-90.307-88.244h-7.569v29.415c-22.534 7.397-37.67 29.414-37.67 58.829 0 0 0 7.396 7.568 7.396h22.706s7.568 0 7.568-7.396c0-22.018 7.569-29.415 15.137-36.811v-7.397c45.24 44.208 67.774 103.037 67.774 176.487v14.793s0 7.396 7.569 7.396h37.67s7.57 0 7.57-7.396V220.5c-7.57-73.622 7.568-139.676 52.636-183.883l-7.741-36.64z m15.137 228.091s0-7.396 0 0l-37.67-7.396s-7.57 0-7.57 7.396v36.64s0 7.396-7.568 7.396h-60.205c-15.137-22.018-30.102-36.811-60.205-51.432 0 0-7.569 0-7.569 7.396v22.018c22.534 14.793 37.672 51.432 45.24 88.243h52.636s7.57 0 7.57-7.396v-29.587h90.306s7.57 0 7.57-7.396l-22.535-65.882zM877.96 470.781c0-29.414-15.137-44.208-45.24-44.208h-37.67c-7.57 0-7.57 0-7.57 7.397v14.793s0 7.397 7.57 7.397h22.533c15.137 0 15.137 0 22.534 14.793l22.534 286.92s0 7.396 7.568 7.396h30.103c7.568 0 7.568 0 7.568-7.396L877.96 470.78z m0 0"  horiz-adv-x="1024" />

    
    <glyph glyph-name="jingjiren" unicode="&#58915;" d="M904.533333-76.8c0 164.977778-102.4 304.355556-244.622222 358.4 91.022222 48.355556 153.6 145.066667 153.6 258.844444 0 162.133333-130.844444 292.977778-292.977778 292.977778C358.4 833.422222 227.555556 702.577778 227.555556 540.444444c0-110.933333 62.577778-207.644444 153.6-258.844444-142.222222-56.888889-244.622222-196.266667-244.622223-358.4h56.888889v14.222222c0 150.755556 102.4 278.755556 241.777778 315.733334v-273.066667l85.333333-28.444445 85.333334 28.444445v273.066667c139.377778-36.977778 241.777778-164.977778 241.777777-315.733334v-14.222222h56.888889z m-341.333333 88.177778l-42.666667-14.222222-42.666666 14.222222v256h85.333333v-256z m-42.666667 290.133333c-130.844444 0-238.933333 108.088889-238.933333 238.933333 0 130.844444 105.244444 238.933333 238.933333 238.933334 130.844444 0 238.933333-108.088889 238.933334-238.933334-2.844444-130.844444-108.088889-238.933333-238.933334-238.933333z"  horiz-adv-x="1024" />

    
    <glyph glyph-name="dui" unicode="&#58960;" d="M942.958 604.043L381.854 42.95 299.35 125.47 84.813 340.004l82.528 82.517 214.513-214.535L860.43 686.56l82.528-82.517z"  horiz-adv-x="1024" />

    
    <glyph glyph-name="tixian" unicode="&#59024;" d="M607.5 384.6c15.6 0 24.9 12.1 24.9 27.8 0 15.7-9.2 26.8-24.9 26.8h-60.3l62.3 62.6c11.1 11.2 11.1 29.3 0 40.5s-29.2 11.2-40.4 0l-57.7-57.9L454 542.1c-11.1 11.2-29.2 11.2-40.3 0-11.1-11.2-11.1-29.3 0-40.5l62.2-62.4h-59.4c-15.6 0-24.9-11.1-24.9-26.8 0-15.7 9.2-27.8 24.9-27.8h61.4v-34.1h-61.4c-15.6 0-24.9-10.2-24.9-25.9s9.2-28.7 24.9-28.7h61.4v-41c0-19.6 14.6-34.1 34.1-34.1 19.6 0 34.1 14.5 34.1 34.1v41h63.2c15.6 0 23.1 10.5 23.1 26.2 0 20.4-10.9 28.4-26.5 28.4h-59.8v34.1h61.4zM510.8 865.5c-265 0-479.7-214.8-479.7-479.7 0-265 214.8-479.7 479.7-479.7 265 0 479.7 214.8 479.7 479.7S775.7 865.5 510.8 865.5zM452.9 671.7c16.2 13.1 36.7 20.9 59.1 20.9 22.2 0 42.6-7.7 58.7-20.6L836 439.7c5.8-6.7 9.4-15.3 9.4-24.8 0-17.4-11.7-31.8-27.6-36.3 0 0-3.8-1.5-9.4-1.5h-78.2v-242.3c0-34.9-26.2-60.6-61-60.6H354.7c-34.7 0-61 25.8-61 60.6V377.2H217c-0.3 0-0.5-0.1-0.7-0.1-0.3 0-0.5 0.1-0.7 0.1h-0.9v0.1c-20.1 0.9-36.1 17.4-36.1 37.7 0 9.2 3.4 17.6 8.9 24.2L452.9 671.7z"  horiz-adv-x="1024" />

    
    <glyph glyph-name="dui1" unicode="&#58881;" d="M0 349.3888l56.5248 79.872 265.8304-203.776L969.5232 752.64 1024 700.416 326.8608 15.36 0 349.3888z"  horiz-adv-x="1024" />

    
    <glyph glyph-name="yinhang" unicode="&#58885;" d="M985.635 583.499l-111.175-312.49c-15.504-43.467-56.903-72.697-103.115-72.697h-434.057c-52.080 0-97.204 37.087-107.321 88.146l-73.572 372.173-24.337 111.63h-81.503c-12.978 0-23.47 10.45-23.47 23.385 0 12.978 10.5 23.429 23.47 23.429h100.383c0.734 0 1.362-0.371 2.058-0.421 1.654-0.151 3.19-0.449 4.752-0.94 1.41-0.451 2.695-0.912 3.964-1.617 1.376-0.704 2.525-1.525 3.728-2.478 1.209-0.95 2.235-1.901 3.226-3.059 2.195-2.707 3.811-5.975 4.606-9.552-1.438 4.559-0.768 3.146-0.281 1.621 0.212-0.704 0.713-1.249 0.875-1.983l24.339-111.708h714.316c25.159 0 48.847-12.234 63.333-32.771 14.578-20.543 18.161-46.956 9.77-70.684zM937.569 627.143c-5.797 8.226-14.916 12.978-25.029 12.978h-704.684l68.108-344.577c5.783-29.182 31.581-50.347 61.333-50.347h434.057c26.412 0 50.093 16.707 58.942 41.533l111.175 312.49c3.355 9.495 1.983 19.673-3.894 27.926zM320.258 147.496c52.159 0 94.562-42.339 94.562-94.413 0-52.080-42.411-94.448-94.562-94.448-52.119 0-94.515 42.372-94.515 94.448 0 52.065 42.39 94.413 94.515 94.413zM320.258 5.464c26.279 0 47.654 21.356 47.654 47.601 0 26.227-21.38 47.554-47.654 47.554-26.247 0-47.601-21.334-47.601-47.554 0-26.261 21.36-47.601 47.601-47.601zM738.069 147.496c52.137 0 94.529-42.339 94.529-94.413 0-52.080-42.39-94.448-94.529-94.448-52.1 0-94.497 42.372-94.497 94.448 0 52.065 42.403 94.413 94.497 94.413zM738.069 5.464c26.287 0 47.658 21.356 47.658 47.601 0 26.227-21.38 47.554-47.658 47.554-26.279 0-47.63-21.334-47.63-47.554-0.002-26.261 21.348-47.601 47.63-47.601z"  horiz-adv-x="1024" />

    
    <glyph glyph-name="daifahuo" unicode="&#58901;" d="M531.2 752h-406.4c-51.2 0-92.8-38.4-92.8-89.6v-448c0-51.2 41.6-92.8 92.8-92.8h73.6c0 6.4-3.2 12.8-3.2 19.2 0 16 3.2 28.8 9.6 41.6h-80c-16 0-32 12.8-32 32v448c0 16 12.8 32 32 32h409.6c16 0 32-12.8 32-32v-480h-172.8c6.4-12.8 9.6-25.6 9.6-41.6 0-6.4 0-12.8-3.2-19.2h227.2v540.8c-3.2 51.2-44.8 89.6-96 89.6zM297.6 12.8c-73.6 0-131.2 60.8-131.2 131.2s60.8 131.2 131.2 131.2 131.2-60.8 131.2-131.2-57.6-131.2-131.2-131.2zM297.6 214.4c-38.4 0-70.4-32-70.4-70.4s32-70.4 70.4-70.4 70.4 32 70.4 70.4-32 70.4-70.4 70.4zM976 454.4l-108.8 144c-16 22.4-44.8 35.2-73.6 35.2h-227.2v-512h124.8c0 6.4-3.2 12.8-3.2 19.2 0 16 3.2 28.8 9.6 41.6h-70.4v390.4h166.4c9.6 0 19.2-3.2 25.6-12.8l108.8-144c3.2-6.4 6.4-12.8 6.4-19.2v-182.4c0-16-12.8-32-32-32h-19.2c6.4-12.8 9.6-25.6 9.6-41.6 0-6.4 0-12.8-3.2-19.2h12.8c51.2 0 92.8 41.6 92.8 92.8v182.4c0 22.4-6.4 41.6-19.2 57.6zM787.2 12.8c-73.6 0-131.2 60.8-131.2 131.2s60.8 131.2 131.2 131.2 131.2-60.8 131.2-131.2-57.6-131.2-131.2-131.2zM787.2 214.4c-38.4 0-70.4-32-70.4-70.4s32-70.4 70.4-70.4 70.4 32 70.4 70.4c3.2 38.4-32 70.4-70.4 70.4z"  horiz-adv-x="1024" />

    
    <glyph glyph-name="daishouchanpin" unicode="&#58930;" d="M511.996959 871.807576c-112.192519 0-215.245678-38.147159-297.803998-101.639806l41.112525-41.105227c71.828025 53.237929 160.452088 85.15636 256.741342 85.15636 238.576954 0 431.986202-193.409248 431.986202-431.99715 0-238.563575-193.409248-431.984986-431.986202-431.984986-238.580603 0-431.986202 193.421411-431.986203 431.984986 0 100.732438 34.758517 193.14166 92.543017 266.61657l-41.110093 41.116175C63.403247 605.851463 22.462222 498.859889 22.462222 382.220537c0-270.374971 219.17193-489.587039 489.534737-489.587039 270.366456 0 489.539603 219.212068 489.539603 489.587039C1001.535345 652.595508 782.363416 871.807576 511.996959 871.807576zM748.936759 88.56051v185.000891H323.210909v-185.000891h44.977961v31.040255h335.766279v-31.040255h44.98161z m-380.747889 71.588412v74.130502h335.766279v-74.130502H368.18887zM374.524634 674.614384c-27.459435-70.960795-74.119555-136.645234-140.005901-197.043585l13.935274-44.980394c27.025212 23.223024 51.951072 48.148884 74.756902 74.759334v-184.369625H789.480051v38.648279H586.753861V409.147228h165.985086v36.111055H586.753861v44.350345H751.470335v36.113488H586.753861v46.251439h192.593104v38.014581h-184.356246c-9.296264 24.917345-18.796869 46.885137-28.507896 65.892428l-46.882704-7.60316c11.404131-17.739895 21.748856-37.174111 31.042687-58.289268h-157.110881c8.868123 17.314186 17.311753 35.895768 25.340621 55.754476l-44.347912 8.871772z m167.251265-312.984774H366.921474V409.147228h174.853209l0.001216-47.517618z m0 83.628673H366.921474v44.350345h174.853209l0.001216-44.350345z m0 126.716488v-46.251439H366.921474V565.005309l4.435886 6.969462h170.418539z"  horiz-adv-x="1024" />

    
    <glyph glyph-name="sort-small-b" unicode="&#58923;" d="M817.074 261.97h-610.153l305.074-366.091 305.074 366.091zM206.926 506.030h610.153l-305.074 366.091-305.074-366.091z"  horiz-adv-x="1024" />

    
    <glyph glyph-name="bianji" unicode="&#58956;" d="M790.8218749999999-116.2195833333335H173.3121875A102.95062499999999 102.95062499999999 0 0 0 70.39999999999998-13.250208333333262v686.4375A102.9121875 102.9121875 0 0 0 173.3121875 776.1379166666667H653.58125c43.96875 0 43.96875-68.6203125 0-68.6203125H173.3121875c-18.24 0-34.329375-16.0903125-34.329375-34.3303125v-686.4375c0-18.24 16.089375-34.329375 34.329375-34.329375H790.8031249999999c18.24 0 34.329375 16.089375 34.329375 34.329375V535.9072916666667c0 43.987500000000004 68.5828125 43.987500000000004 68.5828125 0v-549.1387500000001a102.9121875 102.9121875 0 0 0-102.8934375-102.988125z m-226.21406249999998 558.815625c-12.844687500000001 15.033750000000001-12.844687500000001 34.329375 0 49.324687499999996L905.523125 833.0085416666667a36.2878125 36.2878125 0 0 0 49.324687499999996 0c11.7890625-12.883125000000001 13.93875-26.821875 5.3568750000000005-41.836875l-5.3568750000000005-7.507499999999999-340.91531249999997-341.068125a36.2878125 36.2878125 0 0 0-49.324687499999996 0z m-116.8509375-9.676874999999999H241.91375c-43.96875 0-43.96875 68.65875 0 68.65875h205.84312500000001c43.96875 0 43.96875-68.65875 0-68.65875zM653.5999999999999 227.01885416666653H241.91375c-43.96875 0-43.96875 68.6203125 0 68.6203125H653.5999999999999c43.9490625 0 43.9490625-68.6203125 0-68.6203125z"  horiz-adv-x="1024" />

    
    <glyph glyph-name="daifukuan" unicode="&#58900;" d="M857.75822697 897.64560087H347.44606213c-44.16446768 0-80.04647949-35.88201182-80.04647946-80.05165764v-196.74651559h66.76192773v86.69134443h536.96152969v-643.75446439h-536.96152969v117.18807703h-66.76192773v-230.56891701c0-44.20977651 35.88201182-80.04906857 80.04647946-80.04906857H857.75822697c44.24084543 0 80.04130133 35.83929205 80.04130133 80.04906857V817.59394323c0 44.17094036-35.8004559 80.05165763-80.04130133 80.05165764z m-110.89532651-116.78547563H458.36857395c-6.44550605 0-11.67802975 5.24158546-11.67802976 11.67802975 0 6.4636296 5.2325237 11.68968059 11.67802976 11.68968058h288.49303197a11.68579698 11.68579698 0 0 0 11.69097515-11.68968058c0.00129454-6.43644429-5.23381823-11.67802975-11.68968061-11.67802975z m-144.26205044-864.66094776c-29.69800249 0-53.77641435 24.07711731-53.77641434 53.77641434 0 29.71094787 24.07841185 53.78677065 53.77641434 53.78677065 29.70576972 0 53.78288703-24.07582277 53.78288703-53.78677065 0-29.7018861-24.07452823-53.77641435-53.78288703-53.77641434zM435.62742013 216.37800643000003l113.11028147-70.04228771s19.55011698-17.82449746 37.52995904-10.62686467c12.50394516 4.99821227 11.13561822 29.78214747 11.13561821 29.78214746V498.92910775c0 47.05646617-38.18628994 85.20909811-85.16896742 85.20909812H171.32542483c-47.02280818 0-85.12495312-38.15392649-85.12495313-85.20909812v-197.03390309c0-47.06034978 38.10214495-85.20391997 85.12495313-85.20391996h264.73178201l-0.42978671-0.31327827z m-43.70231752 166.42972382c12.82628519 0 23.25638005-10.40032048 23.25638006-23.2175439 0-12.86512133-10.43009485-23.29521619-23.25638006-23.2952162h-65.81950387v-54.56737722c0-12.81333982-10.34983348-23.21624937-23.24990736-23.21624937-12.82499067 0-23.21624937 10.40032048-23.21624936 23.21624937v54.56737722H213.85489067c-12.90007387 0-23.30298343 10.43268393-23.30298344 23.2952162 0 12.81592889 10.40290955 23.2175439 23.30298344 23.2175439h65.78584588v25.7172973H213.85489067c-12.90007387 0-23.30298343 10.40290955-23.30298344 23.21495483 0 12.86512133 10.40290955 23.3055725 23.30298344 23.3055725h25.21242738l-29.07791867 55.26772243c-7.47336944 10.46763646-5.0940081 25.00141763 5.38398467 32.43983455 10.44304023 7.46171859 25.02083571 5.00468496 32.48384886-5.43835527l43.11200806-81.92226544c0.0776723-0.11780299 0.11780299-0.27314757 0.19029713-0.3482308h23.4609171c0.03883615 0.07508322 0.07508322 0.23042782 0.15663911 0.3482308l43.18709129 81.92226544c7.46301314 10.44304023 21.96443085 12.90007387 32.44242363 5.43835527 10.43786208-7.43712237 12.86512133-21.97219808 5.42282082-32.43983455l-29.15300188-55.26772243h25.24608538c12.82628519 0 23.25638005-10.43786208 23.25638005-23.3055725 0-12.81075074-10.43009485-23.21495483-23.25638005-23.21495483H326.10430419v-25.7172973h65.82079842z"  horiz-adv-x="1024" />

    
    <glyph glyph-name="sousuo" unicode="&#58890;" d="M466.688 801.792c206.336 0 374.229333-167.893333 374.229333-374.229333s-167.893333-374.229333-374.229333-374.229334-374.229333 167.893333-374.229333 374.229334 167.850667 374.229333 374.229333 374.229333m0 85.333333C212.864 887.125333 7.125333 681.386667 7.125333 427.562667S212.864-32 466.688-32s459.562667 205.738667 459.562667 459.562667S720.469333 887.125333 466.688 887.125333zM943.104-118.229333c-16.384 0-32.768 6.229333-45.269333 18.730666l-93.312 93.354667a64 64 0 1 0 90.496 90.496l93.312-93.354667a64 64 0 0 0-45.226667-109.226666z"  horiz-adv-x="1024" />

    
    <glyph glyph-name="jiantou-copy" unicode="&#59488;" d="M679.3173333333333 384l-407.296-407.296 90.496-90.496 497.792 497.792-497.792 497.792-90.496-90.496z"  horiz-adv-x="1024" />

    
    <glyph glyph-name="jiantou-copy1" unicode="&#59489;" d="M302.016 384l407.296 407.296-90.496 90.496-497.792-497.792 497.792-497.792 90.496 90.496z"  horiz-adv-x="1024" />

    
    <glyph glyph-name="xiangji" unicode="&#58886;" d="M281.6 736h185.6c12.8 0 19.2 6.4 19.2 19.2v32c0 12.8-6.4 19.2-19.2 19.2H281.6c-12.8 0-19.2-6.4-19.2-19.2v-25.6c0-12.8 6.4-25.6 19.2-25.6zM512 166.4c108.8 0 192 83.2 192 192s-83.2 192-192 192-192-83.2-192-192 83.2-192 192-192z m0 320c70.4 0 128-57.6 128-128s-57.6-128-128-128-128 57.6-128 128 51.2 128 128 128zM857.6 716.8h-352c-12.8 0-25.6-12.8-25.6-32 0-12.8 12.8-25.6 25.6-25.6h352c25.6 0 44.8-19.2 44.8-44.8v-512c0-25.6-19.2-44.8-44.8-44.8H166.4c-25.6 0-44.8 19.2-44.8 44.8v512c0 25.6 19.2 44.8 44.8 44.8h96c12.8 0 25.6 12.8 25.6 25.6s-12.8 25.6-25.6 25.6h-96C108.8 716.8 64 672 64 614.4v-512C64 44.8 108.8 0 166.4 0h691.2c57.6 0 102.4 44.8 102.4 102.4v512c0 57.6-44.8 102.4-102.4 102.4zM812.8 627.2c-25.6 0-44.8-25.6-44.8-51.2h96c0 25.6-25.6 51.2-51.2 51.2z"  horiz-adv-x="1024" />

    
    <glyph glyph-name="dizhi" unicode="&#58895;" d="M537.8048 454.63552m-135.50592 0a135.50592 135.50592 0 1 1 271.01184 0 135.50592 135.50592 0 1 1-271.01184 0ZM537.80992 625.08544c-92.76928-0.35328-167.7312-75.74528-167.55712-168.51456-0.1792-92.76416 74.78784-168.15616 167.55712-168.50944 92.7488 0.35328 167.70048 75.75552 167.49056 168.50944 0.20992 92.75904-74.74176 168.1664-167.49056 168.51456z m0-280.832c-61.83936 0.24576-111.81568 50.4832-111.74912 112.32256 0 62.01856 50.11456 112.384 111.74912 112.384 61.568 0 111.68256-50.36544 111.68256-112.384 0-61.952-50.05312-112.32256-111.68256-112.32256zM857.09824 705.536a415.91808 415.91808 0 0 1-20.16256 26.496 405.38624 405.38624 0 0 1-43.70944 44.35456l-3.45088 2.944a27.84768 27.84768 0 0 1-39.0912-4.736l-0.14848-0.18944a28.17536 28.17536 0 0 1-3.64032-28.35456 27.136 27.136 0 0 1 7.93088-10.30144l3.84-3.52256a360.61184 360.61184 0 0 0 32.07168-32.45056c2.56-3.00544 5.18144-5.94944 7.68-9.088a336.67072 336.67072 0 0 0 74.35776-211.26144c0-163.01056-259.31776-444.86656-332.34944-517.18656C431.1808 72.38656 202.7008 332.8 202.7008 479.42656c0 185.856 150.33856 337.08544 335.10912 337.08544 11.99104-0.04096 23.98208-0.72192 35.90144-2.048 19.27168-2.048 37.94944-5.95456 56.13056-11.20256 6.528-1.98656 8.64256-2.688 15.29856-5.31456 0.512-0.19456 1.01888-0.128 1.60256-0.256a27.71456 27.71456 0 0 1 34.62144 16.19456 28.16 28.16 0 0 1-15.872 36.41856 338.52416 338.52416 0 0 1-23.36256 8.00256 289.4592 289.4592 0 0 1-61.568 11.904l-6.58944 0.64a80.4864 80.4864 0 0 1-9.088 0.384c-9.02144 0.64-17.92 1.408-27.06944 1.408-215.55712 0-390.91712-176.44544-390.91712-393.28256 0-211.2 358.4-561.34656 373.69344-576.18944a27.776 27.776 0 0 1 31.81056-4.93056c15.62112 7.86944 376.32 366.65344 376.32 581.12A392.53504 392.53504 0 0 1 857.09824 705.536z"  horiz-adv-x="1024" />

    
    <glyph glyph-name="dianhua" unicode="&#58912;" d="M512 834c-248.5 0-450-201.5-450-450s201.5-450 450-450 450 201.5 450 450-201.5 450-450 450zM725.1 219.5c-9.4-33.8-70.8-61.2-137.8-44.4-67.4 16.7-134.8 52.3-189.1 106.2-53.8 54.2-89.4 121.6-106.1 189-16.7 67 10.6 128.4 44.4 137.8 8.6 2.4 43.5 6.2 96.1-87.5 15-27 3.5-25.7-30.1-80.5-15.7-25.6 10-60.4 10-60.4s17.6-27.5 37.1-47.2c19.6-19.7 47.2-37.1 47.2-37.1s34.8-25.7 60.4-10.1c54.8 33.6 53.5 45.3 80.4 30.2 93.8-52.6 89.9-87.5 87.5-96z"  horiz-adv-x="1024" />

    
    <glyph glyph-name="daishouhuo" unicode="&#58889;" d="M949.435259 561.734984l-60.423161 120.844276c-17.98563 35.970236-63.682391 64.225767-103.945397 64.225767l-546.189683 0c-40.264029 0-85.960791-28.254507-103.94642-64.225767L74.508459 561.734984c-6.412037-12.82305-8.53028-25.864064-7.280824-38.090527l-0.38067 0 0-470.337111 0.054235 0 0-5.161556c0-14.889105 12.062733-26.951839 26.950815-26.951839L929.656797 21.193951c14.888082 0 26.949792 12.062733 26.949792 26.951839l0 5.161556 0.543376 0L957.149964 523.64548l-0.433882 0C957.965539 535.87092 955.847296 548.911934 949.435259 561.734984zM122.488217 473.384773c2.390443-0.217964 4.619204-0.76134 7.118118-0.76134l764.731048 0c2.499937 0 4.728698 0.543376 7.173376 0.76134l0-86.23299L706.714192 387.151783c-15.377222 0-27.821649-12.443403-27.821649-27.820626 0-15.377222 12.443403-27.820626 27.821649-27.820626l194.795545 0 0-55.641251-361.718275 0c-15.375176 0-27.819602-12.44238-27.819602-27.820626 0-15.376199 12.443403-27.820626 27.819602-27.820626l361.718275 0 0-145.132448-779.022543 0L122.487194 473.384773zM124.281049 536.8492l60.422138 120.844276c8.748245 17.496489 34.558074 33.471322 54.17383 33.471322l546.189683 0c19.614733 0 45.425585-15.974833 54.172807-33.471322l60.423161-120.844276c2.281973-4.672416 2.608407-7.063883 2.715855-7.010671-0.490164-0.379647-3.042289-1.574868-8.042163-1.574868L129.606335 528.263661c-4.184299 0-6.628978 0.86981-7.280824 0.86981-0.162706 0-0.216941-0.10847-0.216941-0.162706C121.999077 529.568377 122.053312 532.393725 124.281049 536.8492zM372.870778 387.151783c-15.377222 0-27.820626-12.443403-27.820626-27.820626l0-139.102105L205.949071 220.229053c-15.377222 0-27.820626-12.443403-27.820626-27.820626 0-15.377222 12.443403-27.820626 27.820626-27.820626l166.921707 0c15.377222 0 27.820626 12.44238 27.820626 27.820626l0 166.921707C400.691403 374.70838 388.248 387.151783 372.870778 387.151783z"  horiz-adv-x="1024" />

    
    <glyph glyph-name="kehu" unicode="&#58918;" d="M113.778-128c0 170.667 34.133 384.228 209.18 471.552A282.283 282.283 0 0 1 512 270.222L398.222 42.667 512-61.326l113.778 103.993L512 270.222a282.283 282.283 0 0 1 189.042 73.33c175.047-87.324 209.18-300.885 209.18-471.552H113.778zM512 327.111a284.444 284.444 0 1 0 284.444 284.445A284.444 284.444 0 0 0 512 327.11z"  horiz-adv-x="1024" />

    
    <glyph glyph-name="miankuaidi" unicode="&#58928;" d="M719.297561 267.946667a55.945366 55.945366 0 0 1-55.945366-55.945366 55.945366 55.945366 0 1 1 55.945366 55.945366zM741.276098 469.250081a2.664065 2.664065 0 0 1-2.164553 1.165529h-127.37561v-244.760976h25.475122v1.498537c0 0.499512 1.165528 4.329106 1.665041 6.660162a83.252033 83.252033 0 0 0 2.664065 8.325204c0.83252 2.164553 1.831545 4.162602 2.830569 6.327154a82.253008 82.253008 0 0 0 3.996097 7.326179c1.165528 1.998049 2.497561 3.829593 3.996098 5.661138a83.252033 83.252033 0 0 0 5.32813 6.493659l4.662114 4.828618a83.252033 83.252033 0 0 0 6.660162 5.494634l5.32813 3.829593a83.252033 83.252033 0 0 0 8.325204 4.49561l5.494634 2.664065a83.252033 83.252033 0 0 0 9.82374 2.997073l4.995122 1.332033a79.755447 79.755447 0 0 0 31.96878 0l4.995122-1.332033a83.252033 83.252033 0 0 0 9.82374-2.997073l5.494634-2.664065a83.252033 83.252033 0 0 0 8.158699-4.49561l5.161626-3.663089a82.253008 82.253008 0 0 0 6.826667-5.661138l4.662114-4.662114a83.252033 83.252033 0 0 0 5.494634-6.660163c1.332033-1.831545 2.664065-3.496585 3.829593-5.494634a83.252033 83.252033 0 0 0 4.162602-7.659187c0.999024-1.998049 1.998049-3.996098 2.830569-5.994146a82.253008 82.253008 0 0 0 2.664065-8.824716c0-1.998049 1.165528-3.996098 1.665041-6.16065s0-1.165528 0-1.665041h11.821788a4.49561 4.49561 0 0 1 4.49561 4.49561v122.546992a16.650407 16.650407 0 0 1-2.830569 9.157723zM512 896A512 512 0 1 1 1024 384 512 512 0 0 1 512 896zM151.518699 411.806179a13.653333 13.653333 0 0 0 13.653334 13.653333h247.092032a13.653333 13.653333 0 1 0 0-27.306666H165.172033a13.653333 13.653333 0 0 0-13.653334 13.653333z m70.764228 78.589919a13.653333 13.653333 0 0 0 13.653333 13.653333h93.075773a13.653333 13.653333 0 1 0 0-27.306667h-93.075773a13.653333 13.653333 0 0 0-13.653333 13.653334z m-42.791545-163.340488a13.653333 13.653333 0 0 0 13.653333 13.653333h97.404878a13.653333 13.653333 0 1 0 0-27.306667H193.144715a13.653333 13.653333 0 0 0-13.653333 13.653334z m666.01626-96.738862a31.802276 31.802276 0 0 0-31.802276-31.802276h-12.154797a83.252033 83.252033 0 0 0-163.673496 0h-140.695935a83.252033 83.252033 0 0 0-163.506992 0h-22.478048a55.778862 55.778862 0 0 0-55.778862 55.778861v1.998049a13.653333 13.653333 0 0 0 27.306666 0v-1.998049a28.472195 28.472195 0 0 1 28.472196-28.472195H333.00813v1.498537c0 0.499512 1.165528 4.329106 1.665041 6.493658a84.251057 84.251057 0 0 0 2.664065 8.325204c0.83252 2.164553 1.831545 4.162602 2.830569 6.327154a83.252033 83.252033 0 0 0 3.996097 7.326179c1.165528 1.998049 2.497561 3.829593 3.829594 5.661138a82.086504 82.086504 0 0 0 5.32813 6.493659l4.662114 4.828618a82.253008 82.253008 0 0 0 6.660162 5.494634l5.328131 3.829593a83.252033 83.252033 0 0 0 7.992195 4.329106l5.494634 2.664065a83.252033 83.252033 0 0 0 9.82374 2.997073l4.995122 1.332033a79.755447 79.755447 0 0 0 31.96878 0l4.995122-1.332033a82.253008 82.253008 0 0 0 9.990244-3.163577l5.32813-2.664065a83.252033 83.252033 0 0 0 8.158699-4.49561l5.161626-3.663089a83.252033 83.252033 0 0 0 6.993171-5.661139l4.49561-4.495609a83.252033 83.252033 0 0 0 5.661138-6.826667l3.663089-5.32813a83.252033 83.252033 0 0 0 4.329106-7.992195c0.999024-1.831545 1.831545-3.829593 2.664065-5.827642a83.252033 83.252033 0 0 0 2.830569-9.157724c0-1.998049 1.165528-3.829593 1.498537-5.827642s0-1.165528 0-1.665041h88.413658V564.323902a23.144065 23.144065 0 0 1-23.144065 23.144065h-264.741463a13.986341 13.986341 0 0 1-13.819838-13.819837 22.811057 22.811057 0 0 0-22.811056-22.811057h-44.62309a13.653333 13.653333 0 1 0 0 27.306667h40.293984a41.293008 41.293008 0 0 0 40.96 36.797398h264.741463a49.95122 49.95122 0 0 0 49.95122-49.951219v-66.601626h127.37561a29.970732 29.970732 0 0 0 24.642601-12.987317l73.761301-107.228618a43.457561 43.457561 0 0 0 7.659187-24.642602zM471.206504 212.167805a54.946341 54.946341 0 0 1 0 6.993171v4.662113a55.112846 55.112846 0 0 1-1.831545 5.994147c0 1.498537 0 2.997073-1.332032 4.329105a55.27935 55.27935 0 0 1-2.997073 5.494635c0 1.332033-1.332033 2.664065-2.164553 3.996097a55.778862 55.778862 0 0 1-3.996098 4.828618c-0.999024 1.165528-1.831545 2.331057-2.830569 3.496585a56.777886 56.777886 0 0 1-4.828618 3.996098c-1.165528 0.999024-2.164553 1.998049-3.496585 2.830569a56.278374 56.278374 0 0 1-5.661138 3.163577l-4.995122 1.332033a56.278374 56.278374 0 0 1-6.826667 2.164553l-3.496585 1.165528a55.945366 55.945366 0 1 1 44.623089-54.779837z"  horiz-adv-x="1024" />

    
    <glyph glyph-name="daipingjia" unicode="&#59078;" d="M526.64832 157.45024l10.42944 0.4608c129.99168 5.67808 244.91008 90.50112 285.97248 211.072 12.16512 35.6864 12.35456 75.35104 12.53376 113.70496 0.03584 7.01952 0.07168 14.01344 0.17408 20.97152 1.00352 52.67968 2.04288 107.01824 2.38592 160.41984 0 9.58464-8.4992 18.34496-17.82784 18.34496-53.8624-1.60768-97.14688-19.18464-148.1216-41.99424l-12.22656-5.4784-2.87744 13.09184c-7.27552 33.02912-21.21216 62.49472-42.60864 90.05568-26.46528 34.24768-70.13888 71.10144-103.51104 71.10144-25.51808 0-58.56256-22.4-98.21696-66.5856-22.79424-25.91744-39.18848-56.99584-48.70144-92.3392l-3.4816-12.928-11.9552 6.03136c-47.20128 23.78752-84.44416 37.80096-135.0912 39.05024-9.61024-0.00512-18.13504-8.6016-18.13504-18.4064 0-24.36096-0.94208-49.0752-1.93536-75.2384-3.00032-78.86336-6.10304-160.4096 17.71008-230.35392 36.21888-106.24 142.20288-184.17152 270.01344-198.51776l9.68704-1.09056v-181.50912c0-13.64992 9.64096-18.48832 17.8944-18.48832 8.24832 0 17.88928 4.8384 17.88928 18.48832v180.13696z m-14.4896 36.3776c-131.22048 0-247.12192 88.34048-275.584 210.05312-6.48704 28.35968-5.66272 58.81856-4.87424 88.27904 0.26112 9.6256 0.49664 18.55488 0.49664 27.35104V644.83328l12.68736-2.09408c39.5008-6.53312 69.76-22.53312 104.79616-41.06752l0.47616-0.25088c4.84864-2.56512 9.79968-5.18144 14.88384-7.82336 3.2768-1.6896 6.56384-2.54976 9.7536-2.54976 9.58976 0 17.29024 8.02816 18.31424 19.09248 6.2464 63.52896 45.3632 121.6 104.63232 155.36128a28.57984 28.57984 0 0 0 14.3616 3.72224c29.19424 0 63.8464-41.04704 77.39392-58.7008 19.9424-26.13248 31.80032-57.70752 35.26144-93.86496l0.13312-1.42336-0.2304-1.40288c-0.39936-2.3808-0.1792-5.00224 0.60928-7.37792l0.2816-1.00864c2.8928-14.20288 16.86016-14.90944 19.63008-14.90944 3.62496 0 7.0656 0.80896 9.94816 2.33984l0.58368 0.29184a1837.6192 1837.6192 0 0 1 25.22112 11.35616c35.49184 16.18944 68.66944 31.3344 107.3408 37.87264l12.8 2.16576-0.0768-12.97408c-0.22528-41.00096-1.07008-82.45248-1.88416-122.5472l-0.05632-2.69824c-0.39936-19.72736-0.79872-39.47008-1.1264-59.24864-3.00032-153.58464-140.0832-244.8128-267.54048-252.672a276.70528 276.70528 0 0 0-18.23232-0.59392zM437.07904 13.4912c-44.11392 76.31872-94.1824 127.11936-144.77312 146.88256-15.59552 6.0416-34.19136 9.23136-53.76 9.23136-40.08448 0-93.24032-15.13984-111.13984-57.82016-2.11456-5.01248-2.06336-9.0624 0.13824-12.3904 2.93376-4.40832 9.62048-7.37792 16.65024-7.37792 8.99584 0 16.34304 4.66944 19.64544 12.48768l1.68448 3.97824 6.9632-2.88256-1.26976 3.54816c0.99328 0.44032 5.38112 3.36896 7.49056 4.78208 7.1936 4.80768 15.29344 10.21952 22.18496 12.45184 12.73856 4.20864 25.50784 6.3488 37.9136 6.3488 28.13952 0 54.656-10.5216 81.07008-32.14848 31.26784-25.57952 59.99616-61.24032 85.38624-105.97888 3.32288-5.80096 8.04864-8.75008 14.02368-8.75008 7.23456 0 14.5664 4.23936 18.24768 10.56256 3.10784 5.31456 2.95424 11.06432-0.45568 17.0752zM879.87712 83.82976c6.98368 0 13.6448 2.95936 16.56832 7.36768 2.21184 3.328 2.26304 7.37792 0.14848 12.38016-17.90464 42.7008-71.0656 57.84064-111.15008 57.84064-19.56352 0-38.16448-3.18976-53.7856-9.2416-64.00512-24.66816-113.86368-93.50144-144.42496-146.89792-3.37408-5.89824-3.52768-11.5712-0.4608-16.86016 3.58912-6.19008 11.32032-10.69056 18.3808-10.69056 5.92384 0 10.60864 2.93888 13.93152 8.73984 22.08256 38.97856 50.66752 74.51136 84.95616 105.57952 24.20224 21.632 49.46432 31.69792 79.54432 31.69792 8.59648 0 17.4592-0.79872 27.08992-2.45248 16.62464-2.85184 30.10048-8.29952 40.03328-16.1792 2.048-1.69984 3.86048-3.79904 5.48864-5.83168l2.64192 1.1008 1.8176-4.48c0.03584-0.09216 0.08704-0.15872 0.12288-0.25088l4.52096-2.03776-2.72896-1.13152c3.71712-5.44256 9.91744-8.6528 17.3056-8.6528z"  horiz-adv-x="1024" />

    
    <glyph glyph-name="yigouxuan" unicode="&#58925;" d="M505.7024 896C229.2224 896 0 666.7776 0 377.7024 0 101.2224 229.2224-128 505.7024-128 794.7776-128 1024 101.2224 1024 377.7024 1024 666.7776 794.7776 896 505.7024 896z m290.9184-380.8768l-336.0256-330.7008a25.088 25.088 0 0 0-35.4304 0.4096l-140.544 145.5616a31.1808 31.1808 0 0 0-2.56 38.144l-0.4608-0.4096 0.7168 0.9728-0.256-0.5632a24.8832 24.8832 0 0 0 34.9696 4.6592l105.3184-80.7424a32.9728 32.9728 0 0 1 39.68 0.6144l303.5136 252.8256a28.16 28.16 0 0 0 33.4336 0.9216c-0.9216 1.3312-1.4848 2.816-2.6624 3.9936l6.8608-6.8096c-1.2288 1.2288-2.7648 1.8432-4.1984 2.816a24.9856 24.9856 0 0 0-2.3552-31.6928z"  horiz-adv-x="1024" />

    
    <glyph glyph-name="jiaimg" unicode="&#58894;" d="M924.16 416.256h-379.904V796.16c0 19.456-12.8 38.4-32.256 38.4s-32.256-19.456-32.256-38.4v-379.904H99.84c-19.456 0-38.4-12.8-38.4-32.256s19.456-32.256 38.4-32.256h379.904v-379.904c0-19.456 12.8-38.4 32.256-38.4s32.256 19.456 32.256 38.4v379.904h379.904c19.456 0 38.4 12.8 38.4 32.256s-19.456 32.256-38.4 32.256z"  horiz-adv-x="1024" />

    
    </font>
</defs>
</svg>
